<svg width="132" height="32" viewBox="0 0 132 32" fill="none" xmlns="http://www.w3.org/2000/svg">
<path d="M34.1527 3.42011C32.8581 3.42011 31.8022 4.45037 31.8022 5.71328C31.8022 6.97619 32.8339 8.03212 34.1527 8.03212C35.4716 8.03212 36.5335 6.99432 36.5335 5.71328C36.5335 4.43224 35.4882 3.42011 34.1527 3.42011Z" fill="#6C7583"/>
<path d="M96.685 14.9554C96.685 11.2 94.6921 9.37813 90.5984 9.37813C88.2959 9.37813 86.2006 10.0277 84.5451 11.1259L85.9454 13.8103C87.2851 12.9991 88.4984 12.629 89.7474 12.629C90.9971 12.629 92.4897 13.0309 92.4897 14.957V15.1624L90.0243 15.2485C85.9578 15.386 83.6204 17.2245 83.6204 20.2986C83.6204 23.3728 85.7026 25.2551 88.6753 25.2551C90.323 25.2551 91.7194 24.7566 92.935 23.7263C93.236 24.5375 93.6316 24.9424 94.6471 24.9424H97.031C96.7982 24.1553 96.6834 23.255 96.6834 21.9165V14.9554H96.685ZM92.4912 21.0645C91.8171 21.625 90.9816 21.9105 89.9941 21.9105C88.5954 21.9105 87.7599 21.205 87.7599 20.0146C87.7599 19.2669 88.0438 18.2623 90.5348 18.1852L92.4912 18.1278V21.066V21.0645Z" fill="#6C7583"/>
<path d="M32.0862 24.9424H36.2209V9.72102H32.0862V24.9424Z" fill="#6C7583"/>
<path d="M23.0692 24.9424H24.5042L30.8399 9.71955H26.7053L23.0268 19.5841L19.4103 9.71955H15.2485L20.8062 23.2867C21.2291 24.3366 21.8651 24.9424 23.0706 24.9424H23.0692Z" fill="#6C7583"/>
<path d="M67.9355 24.9424V14.898C67.9355 10.8253 65.4187 9.37813 63.0666 9.37813C61.2931 9.37813 59.7084 9.94157 57.9546 11.203L57.9334 11.1244C57.586 10.1833 56.8382 9.72102 55.6327 9.72102H54.0541V24.9439H58.1827V14.4524C59.5166 13.4569 60.6889 12.975 61.7795 12.975C63.1739 12.975 63.7978 13.9131 63.7978 16.0265V24.9424H67.9355Z" fill="#6C7583"/>
<path d="M82.7431 23.69L81.6601 20.7503C80.7928 21.2534 79.5345 21.8501 78.0583 21.8501C74.9917 21.8501 73.9071 19.3545 73.9071 17.2199C73.9071 14.5582 75.667 12.6275 78.0901 12.6275C79.4996 12.6275 80.8681 13.0898 81.9425 13.898L82.0798 10.4945C80.7579 9.75577 79.3693 9.37658 77.652 9.37658C75.46 9.37658 73.4569 10.1879 72.0173 11.6607C70.567 13.1336 69.7724 15.1745 69.7724 17.4088C69.7724 19.643 70.4492 21.5388 71.6683 22.9257C73.0007 24.4514 74.9449 25.2535 77.2743 25.2535C79.4601 25.2535 81.643 24.4423 82.7446 23.6885L82.7431 23.69Z" fill="#6C7583"/>
<path d="M51.6718 24.9424C51.4392 24.1553 51.3213 23.255 51.3213 21.9165V14.9554C51.3213 11.2 49.3288 9.37813 45.2304 9.37813C42.9327 9.37813 40.8389 10.0277 39.1802 11.1259L40.5806 13.8103C41.9236 12.9991 43.1351 12.629 44.3798 12.629C45.6246 12.629 47.1247 13.0309 47.1247 14.957V15.1624L44.6593 15.2485C40.5941 15.386 38.2602 17.2245 38.2602 20.2986C38.2602 23.3728 40.3404 25.2551 43.3133 25.2551C44.9645 25.2551 46.3543 24.7566 47.5718 23.7263C47.8785 24.5375 48.2698 24.9424 49.288 24.9424H51.6718ZM47.1277 21.0645C46.457 21.625 45.6155 21.9105 44.6351 21.9105C43.2333 21.9105 42.3979 21.205 42.3979 20.0146C42.3979 19.2669 42.6819 18.2623 45.1744 18.1852L47.1277 18.1278V21.066V21.0645Z" fill="#6C7583"/>
<path d="M14.4101 24.9424C14.1774 24.1553 14.0596 23.255 14.0596 21.9165V14.9554C14.0596 11.2 12.0671 9.37813 7.96864 9.37813C5.67094 9.37813 3.57717 10.0277 1.91847 11.1259L3.31885 13.8103C4.66182 12.9991 5.87336 12.629 7.11814 12.629C8.36292 12.629 9.86297 13.0309 9.86297 14.957V15.1624L7.39761 15.2485C3.33396 15.386 1 17.2245 1 20.2986C1 23.3728 3.08017 25.2551 6.05313 25.2551C7.70427 25.2551 9.09404 24.7566 10.3117 23.7263C10.6183 24.5375 11.0095 24.9424 12.0277 24.9424H14.4116H14.4101ZM9.866 21.0645C9.19528 21.625 8.35385 21.9105 7.37344 21.9105C5.97156 21.9105 5.13617 21.205 5.13617 20.0146C5.13617 19.2669 5.42016 18.2623 7.91274 18.1852L9.866 18.1278V21.066V21.0645Z" fill="#6C7583"/>
<path d="M123.335 24.2475C124.521 24.2475 125.047 24.3457 125.377 24.4952C124.87 22.9196 123.27 21.6914 117.633 21.27C118.533 22.3123 119.478 23.3109 120.475 24.2475H123.335Z" fill="#6C7583"/>
<path d="M117.633 21.2715C112.161 14.9132 108.475 6.7783 106.997 0C106.997 0 103.99 2.6527 103.751 8.23156C103.487 14.3286 106.757 20.4753 117.528 21.2594C117.563 21.2655 117.599 21.2655 117.633 21.27V21.2715Z" fill="#6C7583"/>
<path d="M120.475 24.2475C116.229 24.2475 108.898 24.2475 108.898 24.2475C109.052 24.607 109.582 24.8593 110.789 24.9303C118.016 25.3593 119.039 31.0303 129.382 31.0303C130.29 31.0303 130.856 30.9759 131.429 30.8686C127.341 29.6118 123.67 27.2491 120.475 24.246V24.2475Z" fill="#6C7583"/>
</svg>
