<svg width="201" height="28" viewBox="0 0 201 28" fill="none" xmlns="http://www.w3.org/2000/svg">
<path d="M181.859 1.33472C180.61 1.33472 179.565 2.38787 179.565 3.65076C179.565 4.94428 180.607 5.9668 181.859 5.9668C183.141 5.9668 184.183 4.88401 184.183 3.65076C184.183 2.35822 183.141 1.33472 181.859 1.33472ZM19.4333 2.42519C19.3696 2.42039 19.3051 2.42201 19.2403 2.42905C14.503 3.01306 9.92733 3.87435 5.34021 5.20444C4.74335 5.3922 4.37454 6.06193 4.52573 6.65583C4.86171 7.97603 5.03016 8.63777 5.37109 9.96391C5.51536 10.5242 6.07855 10.8128 6.6507 10.622C11.3366 9.17931 16.0358 8.19257 20.8828 7.47416C21.4381 7.40005 21.7416 6.8247 21.5371 6.24859C21.1062 5.03412 20.8902 4.42792 20.4505 3.22036C20.287 2.77161 19.8794 2.45877 19.4333 2.42519ZM115.875 2.56801C114.685 2.56801 112.419 3.23003 111.376 4.01168V23.3159H115.875V2.56801ZM166.604 2.56801C165.442 2.56801 163.148 3.23003 162.103 4.01168V22.4435C163.59 23.1352 166.064 23.615 168.629 23.615C173.872 23.615 177.09 20.4584 177.09 14.9859C177.09 11.0766 175.273 7.98077 170.835 7.98176C169.436 7.98176 167.886 8.582 166.604 9.6937V2.56801ZM38.5368 3.28984C36.3618 3.28984 34.515 3.5294 32.0712 3.89008V23.3159H39.4015C43.3947 23.3159 46.9112 20.9704 46.9112 17.4524C46.9112 14.7765 45.7492 13.1224 43.0377 12.3417C44.7956 11.65 45.7802 10.3856 45.7802 8.49129C45.7802 5.18386 42.5597 3.28984 38.5368 3.28984ZM38.5368 7.0785C40.4153 7.0785 41.2794 7.95092 41.2794 9.18417C41.2794 10.4767 40.4451 11.2281 38.6565 11.2281H36.6299V7.22904C37.2564 7.13913 37.9113 7.0785 38.5368 7.0785ZM88.4881 7.95088C83.7794 7.95088 80.1426 10.7168 80.1426 15.9798C80.1426 20.8486 83.154 23.615 87.7431 23.615C89.084 23.615 90.7821 23.316 92.4215 22.6539L91.6166 19.0447C90.5148 19.436 89.6199 19.5871 88.8451 19.5871C86.014 19.5871 84.8808 18.1139 84.8808 15.7077C84.8808 13.3321 86.1034 11.7704 89.1134 11.7704C89.5907 11.7704 90.4246 11.8904 90.9315 12.0406C91.6163 11.2886 92.2426 9.96536 92.4215 8.46234C90.9906 8.13229 89.7994 7.95088 88.4881 7.95088ZM101.064 7.95088C96.5047 7.95088 93.2861 10.957 93.2861 15.7695C93.2861 20.5186 96.3259 23.615 101.064 23.615C105.774 23.615 108.842 20.6095 108.842 15.7695C108.842 11.0786 105.802 7.95088 101.064 7.95088ZM126.187 7.95088C121.629 7.95088 118.409 10.957 118.409 15.7695C118.409 20.5186 121.449 23.615 126.187 23.615C130.897 23.615 133.966 20.6095 133.966 15.7695C133.966 11.0786 130.926 7.95088 126.187 7.95088ZM143.17 7.97983C140.819 7.97983 138.019 8.67013 136.228 9.93302L136.202 23.3159H140.701V12.0406C141.27 11.8904 141.922 11.7994 142.608 11.7994C144.397 11.7994 145.411 12.6122 145.411 14.2061V23.3159H149.852V14.4165C149.852 13.6339 149.732 12.9121 149.493 12.251C150.149 11.9802 150.952 11.7994 151.787 11.7994C153.576 11.7994 154.588 12.6103 154.588 14.2042V23.3159H159.029V12.61C159.029 9.72352 156.497 7.9818 153.243 7.97983C151.457 7.97983 149.338 8.64075 147.817 9.63387C146.655 8.61111 145.047 7.97983 143.17 7.97983ZM71.8878 7.98175C69.4134 7.98175 66.3733 8.67211 64.4958 9.93302L64.4668 23.3159H68.9677V12.0387C69.5339 11.8885 70.1897 11.7994 70.8746 11.7994C72.6928 11.7994 73.7349 12.6103 73.7349 14.2042V23.3159H78.2048V12.61C78.2048 9.69387 75.3148 7.98175 71.8878 7.98175ZM181.888 7.98175C181.024 7.98175 180.25 8.13274 179.624 8.4025V23.3159H184.125V8.40251C183.499 8.13175 182.752 7.98175 181.888 7.98175ZM55 8.00877C53.0326 8.00877 51.2141 8.49051 49.3662 9.18224L49.7252 10.265C50.2015 11.5882 50.7661 12.0387 51.4816 12.0387C51.779 12.0387 54.0736 11.6488 54.9383 11.6488C56.5767 11.6488 57.3226 12.1291 57.4126 13.9938C52.4954 14.144 48.353 15.1958 48.353 19.4963C48.353 22.3502 50.946 23.6459 54.0755 23.6459C57.5925 23.6459 60.185 22.9839 61.7937 21.7506V13.8433C61.7937 9.63363 59.2917 8.00976 55 8.00877ZM193.005 8.00877C191.038 8.00877 189.221 8.49051 187.373 9.18224L187.731 10.265C188.207 11.5882 188.77 12.0387 189.489 12.0387C189.786 12.0387 192.081 11.6488 192.945 11.6488C194.582 11.6488 195.329 12.1291 195.42 13.9938C190.5 14.144 186.358 15.1958 186.358 19.4963C186.358 22.3502 188.952 23.6459 192.081 23.6459C195.599 23.6459 198.19 22.9839 199.799 21.7506V13.8433C199.799 9.63363 197.297 8.00976 193.005 8.00877ZM23.3841 9.78055C23.3235 9.77577 23.2618 9.77835 23.2007 9.78633C15.7845 10.732 8.56366 12.565 1.71559 15.5957C1.21656 15.8329 0.916028 16.4609 1.02077 17.0162C1.28857 18.4343 1.42449 19.1407 1.69822 20.5617C1.81581 21.1675 2.38284 21.4472 2.94116 21.1755C9.89695 17.9866 17.2484 15.9599 24.7892 14.7484C25.2684 14.6694 25.5114 14.1229 25.3276 13.5557C24.9492 12.3807 24.7578 11.7949 24.3665 10.6278C24.2074 10.1523 23.8082 9.81436 23.3841 9.78055ZM168.922 11.7994C171.22 11.7994 172.649 12.7912 172.649 15.5571C172.649 17.9614 171.518 20.0068 168.891 20.0078C168.179 20.0078 167.4 19.9469 166.597 19.8264V12.2799C167.255 11.9795 167.997 11.7994 168.922 11.7994ZM101.064 11.8592C103.15 11.8592 104.341 13.303 104.341 15.7694C104.341 18.3535 103.15 19.7067 101.064 19.7067C99.0078 19.7067 97.787 18.3535 97.787 15.7694C97.787 13.302 99.0374 11.8592 101.064 11.8592ZM126.187 11.8592C128.274 11.8592 129.465 13.303 129.465 15.7694C129.465 18.3535 128.274 19.7067 126.187 19.7067C124.131 19.7067 122.908 18.3535 122.908 15.7694C122.908 13.302 124.161 11.8592 126.187 11.8592ZM36.6299 14.9859H39.0135C41.0106 14.9859 42.0244 15.6491 42.0244 17.2421C42.0244 18.7154 40.9214 19.4963 38.9846 19.4963H36.6299V14.9859ZM56.5479 16.8811H57.4126V19.4674C56.9649 19.8577 56.0125 20.2182 54.8514 20.2182C53.3909 20.2182 52.6743 19.8296 52.6743 18.7456C52.6743 17.3325 54.5221 16.8811 56.5479 16.8811ZM194.555 16.8811H195.42V19.4674C194.972 19.8577 194.019 20.2182 192.857 20.2182C191.396 20.2182 190.682 19.8296 190.682 18.7456C190.682 17.3325 192.528 16.8811 194.555 16.8811ZM23.305 17.6686C23.241 17.6673 23.1758 17.6726 23.112 17.6859C18.4814 18.6919 13.9568 19.9021 9.47241 21.4437C8.90421 21.6522 8.58399 22.252 8.73321 22.8044C9.08895 24.1206 9.26806 24.7787 9.62874 26.099C9.79773 26.7185 10.4938 27.0349 11.1342 26.7918C15.6165 25.186 20.1432 23.7832 24.7699 22.6596C25.2136 22.5519 25.4329 22.0305 25.2678 21.4939C24.9042 20.3091 24.7198 19.7189 24.3453 18.539C24.1844 18.0306 23.7526 17.6775 23.305 17.6686Z" fill="#6C7583"/>
</svg>
