<?xml version="1.0" encoding="utf-8"?>
<svg xmlns="http://www.w3.org/2000/svg" fill="none" height="26" viewBox="0 0 130 26" width="130">
<g clip-path="url(#clip0_547_16217)">
<path d="M128.401 11.4954C127.412 10.392 126.073 9.85047 124.347 9.85047C122.601 9.85047 121.243 10.392 120.293 11.4954C119.381 12.5187 118.935 13.8627 118.935 15.548C118.935 17.2131 119.4 18.5772 120.312 19.6005C121.301 20.7039 122.64 21.2456 124.347 21.2456C126.035 21.2456 127.373 20.7039 128.343 19.6005C129.274 18.5772 129.74 17.2332 129.74 15.548C129.74 13.8828 129.293 12.5187 128.401 11.4954ZM125.375 18.0959C125.181 18.6776 124.832 18.9584 124.347 18.9584C123.377 18.9584 122.892 17.8149 122.892 15.548C122.892 13.2208 123.377 12.0572 124.347 12.0572C125.22 12.0572 125.666 13.2208 125.666 15.548C125.666 16.7316 125.569 17.5742 125.375 18.0959Z" fill="#A4ABB6"/>
<path d="M113.774 8.74658H117.712V7.12171H113.774V8.74658Z" fill="#A4ABB6"/>
<path d="M113.774 21.0044H117.712V10.1711H113.774V21.0044Z" fill="#A4ABB6"/>
<path d="M108.246 7.12172V9.91015C105.588 10.2714 103.629 11.0538 102.329 12.2775C101.204 13.3408 100.661 14.6046 100.7 16.0693C100.719 17.8145 101.32 19.0785 102.465 19.8609C103.61 20.6232 105.452 21.0044 107.955 21.0044H112.203V7.12172H108.246ZM105.84 18.3161C105.123 17.9149 104.774 17.1726 104.774 16.0693C104.774 15.1263 105.103 14.2836 105.782 13.5414C106.481 12.7991 107.295 12.438 108.246 12.438V18.7374C107.14 18.7374 106.345 18.5969 105.84 18.3161Z" fill="#A4ABB6"/>
<path d="M65.3162 10.1112H61.2428V17.7748C61.2428 18.7779 61.6888 19.6005 62.6005 20.2224C63.5898 20.9044 64.9479 21.2456 66.6549 21.2456C68.1678 21.2456 69.4095 20.9847 70.36 20.4831L72.067 21.0048V10.1112H68.11V17.2131C68.11 18.2161 67.6248 18.7177 66.6549 18.7177C65.7626 18.7177 65.3162 18.2161 65.3162 17.2131V10.1112Z" fill="#A4ABB6"/>
<path d="M59.1282 10.2316C58.1001 9.97073 57.1689 9.85047 56.3736 9.85047C54.7633 9.85047 53.4828 10.1514 52.5715 10.7331C51.7758 11.2347 51.3493 11.8766 51.3105 12.659C51.2911 13.5618 51.8147 14.3242 52.8816 14.9662L55.5392 16.3103C56.1408 16.6714 56.4315 17.0726 56.4315 17.5341C56.4315 18.4771 55.675 18.9584 54.1815 18.9584C53.0369 18.9584 52.0863 18.8181 51.3105 18.5371L51.2134 20.7842C52.4745 21.085 53.7351 21.2456 54.9962 21.2456C56.7226 21.2456 58.0612 20.9245 58.973 20.3026C59.9235 19.6808 60.3889 18.798 60.3889 17.6144C60.3889 16.832 60.1564 16.1899 59.6712 15.6885C59.3029 15.3073 58.7789 14.9662 58.0612 14.6652L56.5091 14.0433C55.8497 13.7224 55.5198 13.3412 55.5198 12.8998C55.5198 12.3581 56.1214 12.0773 57.3238 12.0773L59.2252 12.338L59.1282 10.2316Z" fill="#A4ABB6"/>
<path d="M45.7431 21.0044H49.8168V7.12172H45.7431V21.0044Z" fill="#A4ABB6"/>
<path d="M43.3957 11.4954C42.4064 10.392 41.0677 9.85047 39.3413 9.85047C37.5955 9.85047 36.2374 10.392 35.2869 11.4954C34.3752 12.5187 33.9292 13.8627 33.9292 15.548C33.9292 17.2131 34.3946 18.5772 35.3063 19.6005C36.2956 20.7039 37.6343 21.2456 39.3413 21.2456C41.0289 21.2456 42.3676 20.7039 43.3375 19.6005C44.288 18.5572 44.7534 17.2131 44.7534 15.548C44.7534 13.8828 44.3074 12.5387 43.3957 11.4954ZM40.68 15.548C40.68 16.7316 40.5829 17.5943 40.3695 18.0959C40.1754 18.6776 39.8261 18.9584 39.3413 18.9584C38.3714 18.9584 37.8862 17.8149 37.8862 15.548C37.8862 13.2208 38.3714 12.0572 39.3413 12.0572C40.2336 12.0572 40.68 13.2208 40.68 15.548Z" fill="#A4ABB6"/>
<path d="M95.5202 8.74658H99.4776V7.12171H95.5202V8.74658Z" fill="#A4ABB6"/>
<path d="M95.5202 21.0044H99.4776V10.1711H95.5202V21.0044Z" fill="#A4ABB6"/>
<path d="M90.4764 9.85047C88.8664 9.85047 87.586 10.1514 86.6743 10.7331C85.879 11.2347 85.4524 11.8766 85.4136 12.659C85.3942 13.5618 85.9178 14.3242 86.9848 14.9662L89.6423 16.3103C90.2435 16.6714 90.5346 17.0726 90.5346 17.5341C90.5346 18.4771 89.7782 18.9584 88.2842 18.9584C87.14 18.9584 86.1895 18.8181 85.4136 18.5371L85.3166 20.7842C86.5772 21.085 87.8383 21.2456 89.0993 21.2456C90.8257 21.2456 92.1644 20.9245 93.0761 20.3026C94.0266 19.6808 94.492 18.798 94.492 17.6144C94.492 16.852 94.2595 16.21 93.7744 15.6885C93.425 15.3073 92.882 14.9662 92.1644 14.6652L90.6123 14.0433C89.9528 13.7224 89.6229 13.3412 89.6229 12.8998C89.6229 12.3581 90.2241 12.0773 91.4075 12.0773C92.1062 12.0773 92.7462 12.1576 93.328 12.338L93.2116 10.2316C92.1838 9.97073 91.2721 9.85047 90.4764 9.85047Z" fill="#A4ABB6"/>
<path d="M77.2466 9.91015V7.12172H73.2892V21.0044H77.5377C80.04 21.0044 81.8634 20.6232 83.008 19.8609C84.1526 19.1186 84.7538 17.8547 84.7926 16.0693C84.812 14.5847 84.269 13.3208 83.1632 12.2775C81.8634 11.0538 79.9041 10.2714 77.2466 9.91015ZM77.2466 18.7374V12.438C78.1971 12.438 78.9924 12.7991 79.6712 13.5414C80.3699 14.2836 80.7188 15.1263 80.7188 16.0693C80.7188 17.1726 80.3699 17.9149 79.6518 18.3161C79.1476 18.5969 78.3524 18.7374 77.2466 18.7374Z" fill="#A4ABB6"/>
<path d="M24.928 0.000299543H13.1918V12.1377L24.928 0.000299543Z" fill="#A4ABB6"/>
<path d="M33.0559 9.48893V6.92096C30.3595 7.00124 28.1872 7.66322 26.4992 8.92714C24.734 10.2312 23.8416 11.9163 23.8416 14.0228C23.8416 16.3299 24.831 18.1155 26.8097 19.4195C28.4973 20.5429 30.5924 21.1448 33.0559 21.2251V18.5567C31.8923 18.3763 30.8641 17.975 29.9718 17.3932C28.6913 16.5306 28.0513 15.407 28.0513 14.0228C28.0513 12.7188 28.6137 11.6556 29.7583 10.7929C30.6894 10.0706 31.7952 9.62926 33.0559 9.48893Z" fill="#A4ABB6"/>
<path d="M7.23624 5.93848H12.4933V0.501756L7.23624 5.93848Z" fill="#A4ABB6"/>
<path d="M6.73196 12.6187H12.4933V6.68035H6.73196V12.6187Z" fill="#A4ABB6"/>
<path d="M12.4933 13.3411H7.23624L12.4933 18.7778V13.3411Z" fill="#A4ABB6"/>
<path d="M6.73196 13.8626V19.5201L12.4933 25.4785V19.821L6.73196 13.8626Z" fill="#A4ABB6"/>
<path d="M6.03349 18.8179V7.18194L0.407837 13L6.03349 18.8179Z" fill="#A4ABB6"/>
<path d="M24.928 26L13.1918 13.8626V26H24.928Z" fill="#A4ABB6"/>
</g>
<defs>
<clipPath id="clip0_547_16217">
<rect fill="white" height="26" transform="matrix(1 0 0 -1 0.407837 26)" width="129.332"/>
</clipPath>
</defs>
</svg>