<?xml version="1.0" encoding="utf-8"?>
<svg xmlns="http://www.w3.org/2000/svg" fill="none" height="26" viewBox="0 0 95 26" width="95">
<g clip-path="url(#clip0_547_16005)">
<path d="M46.557 26.0001C46.3778 25.9246 46.1702 25.9529 45.991 25.8869C45.5098 25.7077 45.1419 25.4058 44.8872 24.9624C44.6136 24.4812 44.5381 23.9529 44.5381 23.4152C44.5287 21.1322 44.5381 18.8397 44.5381 16.5567C44.5381 16.2454 44.5381 15.9341 44.5381 15.6133C44.5381 15.4435 44.5381 15.4341 44.6985 15.4341C45.1419 15.4341 45.5947 15.4341 46.0381 15.4341C46.1513 15.4341 46.1985 15.4718 46.1796 15.585C46.1796 15.6228 46.1796 15.6605 46.1796 15.6982C46.1796 18.302 46.1796 20.8963 46.1796 23.5001C46.1796 23.6416 46.1702 23.7737 46.2079 23.9152C46.3117 24.2737 46.557 24.4718 46.8872 24.5001C47.3306 24.5473 47.6608 24.2926 47.774 23.9907C47.8494 23.7926 47.8589 23.5945 47.8589 23.3963C47.8589 21.019 47.8589 18.6511 47.8589 16.2737C47.8589 16.0473 47.8683 15.8209 47.8589 15.5945C47.8589 15.4718 47.8966 15.4341 48.0193 15.4341C48.4344 15.4435 48.8494 15.4435 49.2645 15.4341C49.3777 15.4341 49.4155 15.4718 49.4155 15.585C49.4061 15.7171 49.4155 15.8492 49.4155 15.9813C49.4155 18.4152 49.4155 20.8492 49.4155 23.2926C49.4155 23.736 49.3777 24.1794 49.2174 24.5945C49.0098 25.1699 48.6136 25.5756 48.0664 25.8492C47.8966 25.8303 47.774 25.9907 47.6042 25.9529C47.557 25.9435 47.5098 25.9624 47.4721 26.0001C47.1796 26.0001 46.8683 26.0001 46.557 26.0001Z" fill="#A4ABB6"/>
<path d="M92.2551 15.4623C92.2834 15.5472 92.274 15.6321 92.274 15.717C92.274 18.5095 92.274 21.3114 92.274 24.1038C92.274 24.4435 92.2645 24.3869 92.5664 24.3869C93.274 24.3869 93.9815 24.3869 94.689 24.3869C94.7834 24.3869 94.8777 24.368 94.9532 24.4435C94.9532 24.9152 94.9532 25.3869 94.9532 25.8491C94.8023 25.8586 94.6513 25.868 94.5098 25.868C93.2834 25.868 92.0475 25.868 90.8211 25.868C90.7645 25.868 90.7079 25.8774 90.6608 25.8491C90.6702 25.8303 90.6607 25.8208 90.6419 25.8114C90.6419 25.6038 90.6324 25.3869 90.6324 25.1793C90.6324 22.0284 90.6324 18.868 90.6324 15.717C90.6324 15.3774 90.6041 15.4246 90.9155 15.4246C91.3589 15.4246 91.7928 15.4246 92.2362 15.434C92.2268 15.4529 92.2362 15.4623 92.2551 15.4623Z" fill="#A4ABB6"/>
<path d="M78.8683 25.9341C78.8494 25.953 78.8117 25.9624 78.8305 26.0002C78.5286 26.0002 78.2362 26.0002 77.9343 26.0002C77.8588 25.9813 77.7834 25.9624 77.7079 25.9436C77.7456 25.9058 77.7928 25.9058 77.84 25.9058C78.1324 25.9058 78.4249 25.9058 78.7173 25.9058C78.7739 25.9058 78.8211 25.8964 78.8683 25.9341Z" fill="#A4ABB6"/>
<path d="M58.2834 26.0001C58.208 25.9812 58.1325 25.9624 58.057 25.9435C58.0853 25.9152 58.123 25.9058 58.1608 25.9058C58.4627 25.9058 58.7646 25.9058 59.0664 25.9058C59.1042 25.9058 59.1419 25.9058 59.1702 25.9435C59.1608 25.9624 59.1608 25.9812 59.1797 26.0001C58.8872 26.0001 58.5853 26.0001 58.2834 26.0001Z" fill="#A4ABB6"/>
<path d="M35.7079 25.9339C35.6891 25.9622 35.6891 25.9811 35.7174 25.9999C35.4155 25.9999 35.123 25.9999 34.8211 25.9999C34.7457 25.9811 34.6702 25.9622 34.5947 25.9433C34.6419 25.8867 34.7079 25.9056 34.7645 25.9056C35.0098 25.9056 35.2551 25.9056 35.5098 25.9056C35.5759 25.9056 35.6419 25.8867 35.7079 25.9339Z" fill="#A4ABB6"/>
<path d="M67.2363 25.934C67.2268 25.9529 67.2268 25.9717 67.2457 25.9906C66.9627 25.9906 66.6797 25.9906 66.3966 25.9906C66.3023 25.9717 66.208 25.9529 66.123 25.934C66.1608 25.8868 66.2174 25.8963 66.274 25.8963C66.5476 25.8963 66.8117 25.8963 67.0853 25.8963C67.1325 25.9057 67.1891 25.8868 67.2363 25.934Z" fill="#A4ABB6"/>
<path d="M72.0947 25.9997C72.0475 25.9809 72.0098 25.9714 71.9626 25.9526C72.0098 25.896 72.0759 25.9148 72.1325 25.9148C72.3494 25.9148 72.5664 25.9054 72.7834 25.9148C72.8494 25.9148 72.9249 25.896 72.9815 25.9431C72.9721 25.962 72.9721 25.9809 72.9909 25.9997C72.6891 25.9997 72.3872 25.9997 72.0947 25.9997Z" fill="#A4ABB6"/>
<path d="M18.991 3.99997C18.8966 3.99997 18.8023 4.0094 18.7079 4.0094C15.5947 4.0094 12.491 4.0094 9.37775 4.0094C9.2268 4.0094 9.07586 4.0094 8.93435 4.04714C8.75511 4.09431 8.6136 4.17922 8.53813 4.33959C8.32114 4.80186 8.04756 5.22639 7.79284 5.66978C7.51926 6.14148 7.24567 6.61318 6.97209 7.09431C6.27397 8.32072 5.5853 9.54714 4.88718 10.7641C4.38718 11.632 3.91549 12.5094 3.39662 13.3679C3.20794 13.6792 3.20794 13.9905 3.39662 14.3113C3.86832 15.1226 4.32115 15.9434 4.78341 16.7547C5.00983 17.1509 5.23624 17.5377 5.45322 17.9339C5.72681 18.4245 5.97209 18.9245 6.26454 19.4056C6.75511 20.1981 7.18907 21.0188 7.66077 21.8207C7.78341 22.0377 7.89662 22.2641 8.00982 22.4811C8.16077 22.7641 8.32115 23.0471 8.51926 23.3113C8.62303 23.4528 8.76454 23.5283 8.94379 23.5188C9.00983 23.5188 9.06643 23.5188 9.13247 23.5188C12.0664 23.5188 15.0098 23.5188 17.9438 23.5188C18.0381 23.5188 18.1325 23.5283 18.2268 23.5283C18.2079 23.6132 18.274 23.6886 18.2551 23.783C18.2174 23.9717 18.2645 24.0188 18.4532 23.9905C18.7362 23.9528 18.8683 24.0566 18.8777 24.349C18.8872 24.5566 18.8872 24.7547 18.8117 24.9528C18.7834 25.0188 18.774 25.0849 18.7928 25.1603C18.8211 25.3302 18.8494 25.5 18.8777 25.6603C18.8023 25.6603 18.7174 25.6698 18.6419 25.6698C15.0193 25.6698 11.3872 25.6698 7.76454 25.6698C7.47209 25.6698 7.29284 25.5377 7.16077 25.3019C6.84001 24.7358 6.51926 24.1698 6.1985 23.6037C4.6136 20.8207 3.02869 18.0377 1.44379 15.2547C1.24567 14.8962 1.03813 14.5471 0.840015 14.1981C0.70794 13.9717 0.707939 13.7641 0.83058 13.5188C1.00039 13.1886 1.17964 12.8679 1.36832 12.5471C1.52869 12.2641 1.69851 11.9905 1.84945 11.7075C2.06643 11.3019 2.34945 10.9245 2.52869 10.5C2.52869 10.4905 2.52869 10.4811 2.53813 10.4811C2.73624 10.217 2.86832 9.90563 3.02869 9.62261C3.1985 9.33016 3.36832 9.03771 3.52869 8.74525C3.68907 8.4528 3.86832 8.17922 4.03813 7.8962C4.1985 7.61318 4.34945 7.31129 4.50982 7.02827C4.66077 6.76412 4.81171 6.49054 4.96266 6.22638C5.1419 5.9245 5.31171 5.61318 5.49096 5.31129C5.65134 5.02827 5.81171 4.75469 5.97209 4.47167C6.1419 4.17921 6.30228 3.87733 6.47209 3.59431C6.6419 3.30186 6.79284 2.99997 6.97209 2.71695C7.05699 2.58488 7.1419 2.46224 7.20794 2.32073C7.33058 2.08488 7.51926 1.97167 7.76454 1.9245C7.90605 1.8962 8.05699 1.88676 8.20794 1.88676C11.7268 1.88676 15.2457 1.88676 18.7551 1.88676C18.8306 1.88676 18.9155 1.87733 18.991 1.90563C19.0004 1.9245 19.0004 1.9528 19.0098 1.97167C19.1608 2.15091 19.1608 2.15091 18.9815 2.30186C18.9438 2.33016 18.8966 2.3679 18.9249 2.41507C19.0287 2.60374 18.9627 2.78299 18.8966 2.94337C18.8023 3.17922 18.8117 3.40563 18.84 3.65091C18.8966 3.76412 19.0004 3.85846 18.991 3.99997Z" fill="#A4ABB6"/>
<path d="M18.1891 22.4244C18.1136 22.4244 18.0287 22.4339 17.9532 22.4339C15.2645 22.4339 12.5853 22.4339 9.89662 22.4339C9.83058 22.4339 9.77397 22.4244 9.70794 22.4339C9.41548 22.4622 9.21737 22.3018 9.07586 22.0754C8.96266 21.8867 8.84945 21.698 8.74567 21.5093C7.6419 19.5659 6.54756 17.6225 5.44379 15.6886C5.1702 15.198 4.88718 14.7074 4.59473 14.2263C4.45322 13.981 4.44379 13.7452 4.5853 13.4999C5.48152 11.915 6.38718 10.3301 7.28341 8.74518C7.44379 8.46216 7.57586 8.15084 7.76454 7.87726C7.98152 7.56594 8.09473 7.18858 8.34001 6.89613C8.37775 6.85839 8.39662 6.80179 8.42492 6.75462C8.67964 6.31122 8.93435 5.86782 9.17964 5.41499C9.30228 5.19801 9.48152 5.09424 9.73624 5.09424C12.7079 5.09424 15.6702 5.09424 18.6419 5.09424C18.6796 5.09424 18.7174 5.10367 18.7551 5.10367C18.7362 5.21688 18.8777 5.28292 18.84 5.38669C18.774 5.57537 18.8494 5.75461 18.8494 5.93386C18.8494 6.22631 18.8494 6.5282 18.8494 6.82065C18.8494 7.03764 18.8211 7.24518 18.6891 7.44329C18.5759 7.61311 18.5947 7.67914 18.7268 7.83009C18.8589 7.98103 18.8211 8.13198 18.623 8.23575C18.4721 7.9999 18.3023 7.77348 18.1796 7.5282C18.0947 7.34896 17.9627 7.27348 17.7834 7.25461C17.7268 7.24518 17.6702 7.24518 17.623 7.24518C15.4438 7.24518 13.2551 7.24518 11.0759 7.24518C10.8683 7.24518 10.6891 7.29235 10.5381 7.43386C10.4627 7.4999 10.4155 7.59424 10.3683 7.67914C10.0664 8.20744 9.78341 8.74518 9.46266 9.26405C9.31171 9.50933 9.17964 9.77348 9.03813 10.0188C8.50983 10.9433 8.00039 11.8773 7.46266 12.7924C7.34001 12.9999 7.22681 13.2169 7.10417 13.4339C6.95322 13.698 6.94379 13.9622 7.09473 14.2357C7.27398 14.5565 7.46265 14.8678 7.63247 15.198C7.84001 15.5942 8.09473 15.9622 8.29284 16.3584C8.59473 16.9527 8.98152 17.4999 9.28341 18.0942C9.59473 18.7169 9.97209 19.3018 10.3117 19.9056C10.3306 19.9433 10.3494 19.9716 10.3683 20.0093C10.491 20.1886 10.6325 20.2923 10.8872 20.2923C12.9815 20.2829 15.0759 20.2829 17.1702 20.2829C17.2645 20.2829 17.3589 20.2923 17.4532 20.2923C17.4532 20.3112 17.4438 20.349 17.4627 20.3584C17.5853 20.4622 17.6042 20.5659 17.557 20.7263C17.5098 20.8773 17.557 20.915 17.7268 20.981C17.906 21.0471 17.9721 21.1414 17.9721 21.3301C17.9721 21.4999 17.9627 21.6603 17.9061 21.8301C17.8211 22.1225 17.8777 22.264 18.123 22.3301C18.1513 22.3395 18.1796 22.3678 18.1891 22.4244Z" fill="#A4ABB6"/>
<path d="M18.6136 8.23598C18.8117 8.13221 18.8495 7.98126 18.7174 7.83032C18.5947 7.67938 18.5759 7.61334 18.6797 7.44353C18.8023 7.25485 18.8306 7.03787 18.84 6.82089C18.8495 6.52844 18.84 6.22655 18.84 5.93409C18.84 5.75485 18.7646 5.5756 18.8306 5.38693C18.8683 5.28315 18.7174 5.21711 18.7457 5.10391C18.774 5.10391 18.8117 5.10391 18.84 5.09447C19.1608 5.019 19.3306 5.20768 19.4627 5.45296C19.6042 5.69825 19.7174 5.9624 19.8683 6.19825C20.0947 6.53787 20.2929 6.88693 20.4815 7.23598C20.6136 7.48126 20.7457 7.71711 20.8683 7.9624C20.9721 8.16994 21.1231 8.34919 21.2268 8.5473C21.5476 9.15108 21.9155 9.72655 22.2268 10.3303C22.4249 10.7077 22.6514 11.0662 22.8589 11.4435C23.0381 11.7737 23.274 12.0756 23.4061 12.4341C23.4438 12.5473 23.5381 12.6228 23.5947 12.7171C23.8589 13.1416 24.0664 13.6039 24.3306 14.0284C24.7363 14.6888 25.1136 15.3775 25.5004 16.0567C25.6514 16.3209 25.8117 16.5756 25.9344 16.8492C26.0098 17.019 26.0193 17.1794 25.9155 17.3398C25.5193 17.9341 25.208 18.585 24.8306 19.1888C24.5664 19.6133 24.3212 20.0473 24.0759 20.4907C23.6514 21.2737 23.1985 22.0284 22.774 22.8115C22.6136 23.1133 22.4344 23.4058 22.2551 23.6982C21.991 24.1322 21.7457 24.585 21.5004 25.0379C21.4249 25.1888 21.3306 25.3398 21.2457 25.4813C21.1702 25.6039 21.0193 25.6605 20.8589 25.6605C20.1891 25.6605 19.5287 25.6511 18.8589 25.6511C18.8306 25.4813 18.8023 25.3114 18.774 25.1511C18.7646 25.0756 18.774 25.0096 18.7929 24.9435C18.8589 24.7454 18.8683 24.5473 18.8589 24.3398C18.84 24.0473 18.7174 23.9435 18.4344 23.9813C18.2457 24.0096 18.1985 23.9624 18.2363 23.7737C18.2551 23.6794 18.1891 23.6133 18.208 23.519C18.6608 23.519 19.1136 23.5001 19.5759 23.519C19.8212 23.5284 19.9721 23.4435 20.0853 23.236C20.7834 21.9907 21.4815 20.7548 22.1797 19.519C22.4155 19.1039 22.6514 18.6888 22.8778 18.2737C23.057 17.9341 23.3023 17.6322 23.4344 17.2737C23.4815 17.1416 23.5004 17.0284 23.4438 16.9058C23.3023 16.5945 23.1419 16.2926 22.9532 16.0001C22.9155 15.9341 22.8966 15.8586 22.8589 15.7926C22.708 15.4907 22.5098 15.2171 22.3495 14.9247C22.2363 14.7171 22.1042 14.519 22.0004 14.302C21.8966 14.0756 21.7646 13.8586 21.6231 13.6511C21.4721 13.4247 21.3778 13.1794 21.2268 12.953C21.0664 12.7077 20.9344 12.4435 20.7834 12.1982C20.7174 12.0945 20.6702 11.9813 20.6136 11.8775C20.5098 11.6888 20.3778 11.519 20.2929 11.3209C20.1797 11.0567 20.0004 10.8398 19.8683 10.585C19.7646 10.3775 19.6419 10.1888 19.5287 9.98126C19.3683 9.69825 19.208 9.42466 19.0476 9.14164C18.9344 8.94353 18.84 8.73598 18.7268 8.52843C18.708 8.42466 18.5948 8.35862 18.6136 8.23598Z" fill="#A4ABB6"/>
<path d="M76.8966 2.18845C77.1514 2.16014 77.4155 2.17901 77.6702 2.17901C77.9721 2.17901 78.2834 2.17901 78.5853 2.17901C78.9155 2.17901 78.9344 2.17901 79.0098 2.5092C79.1231 3.0092 79.2834 3.49977 79.4061 3.99977C79.5193 4.47146 79.6608 4.93373 79.7834 5.40543C79.9438 5.99033 80.1136 6.57524 80.2551 7.16014C80.3117 7.38656 80.3683 7.62241 80.4627 7.84882C80.5098 7.96203 80.4532 8.10354 80.5665 8.18845C80.6514 8.16958 80.6231 8.10354 80.6231 8.05637C80.6231 7.77335 80.6231 7.49033 80.6231 7.20731C80.6231 5.62241 80.6231 4.02807 80.6231 2.44316C80.6231 2.36769 80.6136 2.28279 80.6325 2.20731H80.6514V2.18845C81.0853 2.18845 81.5098 2.17901 81.9438 2.17901C82.0381 2.17901 82.0759 2.20731 82.0665 2.30165C82.0665 2.33939 82.0665 2.37713 82.0665 2.41486C82.0665 5.75448 82.0665 9.08467 82.0665 12.4243C82.0665 12.4715 82.0664 12.5186 82.057 12.5658C82.0381 12.5658 82.0287 12.5847 82.0287 12.6035C81.5004 12.6318 80.9815 12.6035 80.4532 12.613C80.3589 12.613 80.3306 12.5658 80.3023 12.4809C80.2268 12.2167 80.1608 11.962 80.0948 11.6979C80.0193 11.3771 79.9155 11.0658 79.84 10.745C79.708 10.2073 79.557 9.66958 79.4061 9.13184C79.3023 8.76392 79.1891 8.40543 79.0948 8.0375C78.9249 7.39599 78.7646 6.74505 78.5853 6.10354C78.5004 5.80165 78.3966 5.49976 78.3778 5.17901C78.3778 5.15071 78.3683 5.13184 78.3495 5.16958C78.3495 5.17901 78.3495 5.18844 78.34 5.18844C78.3306 5.18844 78.3212 5.18844 78.3212 5.18844C78.3117 5.19788 78.3117 5.20731 78.3306 5.21675C78.3306 7.62241 78.3306 10.0186 78.3306 12.4243C78.3306 12.613 78.3306 12.613 78.1325 12.6224C77.774 12.6224 77.4155 12.6224 77.0476 12.6224C76.9815 12.6224 76.9249 12.6318 76.8589 12.6035C76.8589 12.5847 76.8589 12.5752 76.84 12.5752C76.84 12.4998 76.8306 12.4149 76.8306 12.3394C76.8306 9.07524 76.8306 5.81109 76.8306 2.54694C76.8306 2.47146 76.8212 2.38656 76.8212 2.31109C76.9061 2.28279 76.8966 2.23562 76.8966 2.18845Z" fill="#A4ABB6"/>
<path d="M45.3211 5.26439C45.3211 7.61344 45.3211 9.9625 45.3211 12.3116C45.3211 12.6417 45.3683 12.6134 45.0287 12.6134C44.6891 12.6134 44.3494 12.604 44.0192 12.6134C43.906 12.6134 43.8589 12.5851 43.8683 12.4719C43.8777 12.4153 43.8683 12.3587 43.8683 12.3116C43.8683 9.0474 43.8683 5.78325 43.8683 2.5191C43.8683 2.41533 43.8494 2.31155 43.8872 2.21721C43.906 2.21721 43.9155 2.20778 43.9155 2.18891C44.5381 2.18891 45.1513 2.18891 45.774 2.17948C45.8589 2.17948 45.9249 2.18891 45.9438 2.29269C46.0192 2.62287 46.1042 2.95306 46.1891 3.27382C46.3306 3.80212 46.4815 4.32099 46.6136 4.84929C46.6985 5.18891 46.8023 5.52854 46.8966 5.86816C47.0853 6.52854 47.274 7.19835 47.4438 7.85872C47.4815 8.00023 47.557 8.13231 47.5476 8.28325C47.5476 8.32099 47.557 8.35872 47.6042 8.34929C47.6419 8.33985 47.6419 8.31155 47.6136 8.28325C47.6136 7.5191 47.6042 6.74551 47.6042 5.98136C47.6042 4.81155 47.6042 3.65118 47.6042 2.48137C47.6042 2.41533 47.5947 2.35872 47.5947 2.29269C47.6513 2.27382 47.6419 2.22665 47.6419 2.17948C48.0759 2.14174 48.5192 2.17005 48.9532 2.16061C49.0192 2.16061 49.057 2.18891 49.057 2.25495C49.057 2.31155 49.057 2.36816 49.057 2.41533C49.057 5.72665 49.057 9.03797 49.057 12.3493C49.057 12.387 49.057 12.4248 49.057 12.4625C49.0664 12.5568 49.0287 12.5851 48.9343 12.5851C48.4532 12.5851 47.9721 12.5851 47.5004 12.5851C47.406 12.5851 47.3683 12.5474 47.34 12.4531C47.2834 12.2266 47.2079 12.0097 47.1419 11.7832C46.9909 11.2549 46.8589 10.7266 46.7174 10.1983C46.5853 9.71721 46.4721 9.22665 46.3306 8.74552C46.1702 8.18891 46.057 7.62287 45.8872 7.0757C45.8117 6.82099 45.7362 6.56627 45.6419 6.32099C45.5664 6.12287 45.5098 5.89646 45.4909 5.67948C45.4721 5.5191 45.4249 5.37759 45.3777 5.22665C45.3777 5.19835 45.3872 5.16061 45.3777 5.13231C45.3777 5.10401 45.3683 5.06627 45.3306 5.07571C45.2928 5.08514 45.2928 5.12287 45.2928 5.15118C45.2834 5.21721 45.2928 5.24552 45.3211 5.26439Z" fill="#A4ABB6"/>
<path d="M50.274 2.19811C50.3211 2.16981 50.3778 2.17924 50.4344 2.17924C51.2268 2.17924 52.0193 2.17924 52.8117 2.17924C53.2928 2.17924 53.7645 2.27358 54.1985 2.49056C54.6419 2.70755 54.9061 3.07547 55.0759 3.51887C55.2551 3.98113 55.2834 4.4717 55.274 4.96226C55.2645 6.63207 55.274 8.29245 55.274 9.96226C55.274 10.3868 55.2174 10.8019 55.0853 11.217C54.8683 11.8868 54.4249 12.2924 53.774 12.4906C53.5381 12.566 53.2928 12.6038 53.0381 12.6038C52.1608 12.6038 51.2834 12.6038 50.4061 12.6038C50.3589 12.6038 50.3117 12.5943 50.2645 12.5849C50.2645 12.566 50.2551 12.5566 50.2457 12.5566C50.2457 12.0189 50.2362 11.4811 50.2362 10.934C50.2362 8.12264 50.2362 5.31132 50.2362 2.5C50.2362 2.43396 50.2268 2.35849 50.2268 2.29245C50.2834 2.28302 50.274 2.23585 50.274 2.19811ZM51.8777 7.41509C51.8777 8.57547 51.8777 9.73584 51.8777 10.8868C51.8777 10.9245 51.8777 10.9623 51.8777 11C51.8683 11.1038 51.9155 11.1321 52.0193 11.1321C52.274 11.1226 52.5381 11.1415 52.7928 11.1226C53.3117 11.0849 53.5664 10.8962 53.623 10.3396C53.6513 10.1038 53.6419 9.86792 53.6419 9.63207C53.6419 8.09434 53.6419 6.54717 53.6419 5.00943C53.6419 4.75472 53.6419 4.5 53.5759 4.24528C53.5193 3.99056 53.34 3.78302 53.0947 3.72641C52.7268 3.65094 52.3494 3.67924 51.9721 3.66981C51.9061 3.66981 51.8683 3.69811 51.8683 3.76415C51.8683 3.82075 51.8683 3.87736 51.8683 3.92453C51.8683 5.09434 51.8683 6.25471 51.8777 7.41509Z" fill="#A4ABB6"/>
<path d="M38.6702 15.4339C39.5004 15.4339 40.3305 15.4244 41.1702 15.4339C41.6041 15.4339 42.0192 15.5282 42.4155 15.6792C42.7551 15.8207 43.0287 16.066 43.2079 16.4056C43.4155 16.8112 43.5098 17.2452 43.5287 17.698C43.5475 18.0565 43.5381 18.415 43.5287 18.7829C43.5192 19.1792 43.4343 19.566 43.2834 19.9339C43.1324 20.2924 42.8589 20.5754 42.5098 20.7452C42.5098 20.8018 42.5475 20.8112 42.5758 20.8301C42.9815 21.0471 43.2362 21.3584 43.3683 21.8207C43.4815 22.2169 43.5381 22.6131 43.5381 23.0093C43.5475 23.632 43.5475 24.2641 43.5475 24.8867C43.5475 25.1792 43.5758 25.4622 43.6796 25.7358C43.689 25.7735 43.7079 25.8112 43.6702 25.8678C43.5098 25.8678 43.34 25.8678 43.1702 25.8678C42.8589 25.8678 42.5381 25.8678 42.2268 25.8678C42.0381 25.8678 42.0287 25.8584 41.9815 25.6603C41.9155 25.3867 41.8872 25.1037 41.8966 24.8207C41.906 24.1697 41.8966 23.5188 41.8966 22.8678C41.8966 22.6226 41.8494 22.3961 41.7739 22.1697C41.689 21.8773 41.4721 21.7452 41.2079 21.6697C40.9343 21.5848 40.6513 21.6131 40.3683 21.6131C40.2928 21.6131 40.2551 21.6414 40.2551 21.7263C40.2551 21.7924 40.2551 21.849 40.2551 21.915C40.2551 23.1603 40.2551 24.4056 40.2551 25.6509C40.2551 25.6697 40.2551 25.698 40.2551 25.7169C40.2739 25.8301 40.2268 25.8678 40.1136 25.8678C39.8588 25.8584 39.5947 25.8678 39.34 25.8678C39.1607 25.8678 38.9815 25.8678 38.8022 25.8678C38.689 25.8678 38.623 25.849 38.6419 25.7169C38.6513 25.632 38.6419 25.5471 38.6419 25.4622C38.6419 22.2075 38.6419 18.9433 38.6419 15.6886C38.6419 15.6131 38.6513 15.5377 38.6513 15.4527C38.6607 15.4622 38.6702 15.4527 38.6702 15.4339ZM40.2456 18.5282C40.2456 19.0094 40.2456 19.4999 40.2456 19.9811C40.2456 20.0943 40.2834 20.132 40.3966 20.132C40.6136 20.1226 40.84 20.1414 41.057 20.1226C41.3777 20.0943 41.6513 19.9811 41.7739 19.6509C41.84 19.4811 41.8872 19.3018 41.8872 19.1037C41.8777 18.7546 41.8777 18.415 41.8872 18.066C41.8966 17.8112 41.8494 17.566 41.7551 17.3207C41.689 17.1509 41.5758 17.0565 41.406 17.0094C41.0853 16.9056 40.7645 16.9244 40.4343 16.9244C40.2551 16.9244 40.2551 16.9244 40.2551 17.1037C40.2456 17.5848 40.2456 18.0565 40.2456 18.5282Z" fill="#A4ABB6"/>
<path d="M59.1702 25.934C59.1419 25.9057 59.1041 25.8963 59.0664 25.8963C58.7645 25.8963 58.4626 25.8963 58.1607 25.8963C58.123 25.8963 58.0853 25.8963 58.057 25.934C57.7173 25.8869 57.3683 25.8397 57.0853 25.6133C56.6985 25.3208 56.4155 24.9623 56.2551 24.5001C56.1324 24.1416 56.1041 23.7831 56.1041 23.4152C56.1041 21.4906 56.1041 19.5661 56.1041 17.6416C56.1041 17.6321 56.1041 17.6227 56.1041 17.6227C56.1513 17.5944 56.1513 17.5567 56.1324 17.5095C56.1702 17.3114 56.1513 17.1133 56.2173 16.9152C56.3966 16.3774 56.6702 15.8963 57.189 15.6227C57.5098 15.4529 57.8588 15.3491 58.2268 15.3303C58.623 15.3114 59.0192 15.302 59.4154 15.4057C59.8777 15.5284 60.2834 15.7359 60.5664 16.1133C60.8022 16.434 60.9532 16.7831 61.0287 17.1887C61.1136 17.6604 61.1041 18.1321 61.1041 18.6133C61.1041 20.1699 61.1041 21.7265 61.1041 23.2925C61.1041 23.6982 61.057 24.0944 60.9249 24.4812C60.7079 25.1227 60.2928 25.5661 59.6702 25.8208C59.5192 25.9057 59.3494 25.9246 59.1702 25.934ZM57.7645 20.6416H57.7739C57.7739 21.6699 57.7739 22.6887 57.7739 23.717C57.7739 24.0378 57.9249 24.302 58.2173 24.434C58.5004 24.5567 58.8117 24.5472 59.0947 24.368C59.2551 24.2642 59.3777 24.1133 59.406 23.9246C59.4343 23.7453 59.4626 23.5755 59.4626 23.3963C59.4626 21.6793 59.4626 19.9718 59.4626 18.2548C59.4626 17.9623 59.4721 17.6699 59.3871 17.3774C59.3305 17.1793 59.2362 17.0472 59.0758 16.9435C58.8871 16.8303 58.689 16.8303 58.4815 16.8397C58.189 16.8586 57.9249 17.0661 57.8211 17.3491C57.7551 17.5189 57.7739 17.6887 57.7739 17.8491C57.7551 18.7737 57.7645 19.7076 57.7645 20.6416Z" fill="#A4ABB6"/>
<path d="M72.9815 25.934C72.9249 25.8774 72.8494 25.9057 72.7834 25.9057C72.5664 25.9057 72.3494 25.9057 72.1325 25.9057C72.0759 25.9057 72.0098 25.8869 71.9626 25.9435C71.6042 25.9435 71.2834 25.8114 70.9815 25.651C70.623 25.4623 70.3872 25.1604 70.1985 24.8114C70.0287 24.5001 69.9626 24.151 69.9438 23.802C69.9438 23.7642 69.9343 23.7265 69.9343 23.6887C69.9909 23.6604 69.9815 23.6321 69.9343 23.6038C69.9343 21.9435 69.9343 20.2831 69.9343 18.6321C69.9343 18.1887 69.9155 17.7359 69.9532 17.2925C69.9815 17.0001 70.0853 16.7076 70.2362 16.4435C70.6608 15.7076 71.3306 15.3869 72.1513 15.3397C72.5192 15.3208 72.8777 15.3397 73.2457 15.4246C73.8966 15.5944 74.3872 15.9529 74.6513 16.5755C74.8211 16.9718 74.9249 17.3963 74.9249 17.8397C74.9249 19.7265 74.9249 21.6133 74.9249 23.5001C74.9249 23.9529 74.8211 24.3963 74.623 24.802C74.2928 25.4718 73.7268 25.8491 72.9815 25.934ZM71.5664 20.7359C71.5664 21.6227 71.5664 22.5001 71.5664 23.3869C71.5664 23.5661 71.5664 23.7454 71.5947 23.9246C71.6325 24.1604 71.9532 24.4718 72.1608 24.4906C72.5004 24.5189 72.84 24.5001 73.0759 24.1982C73.0947 24.1699 73.1136 24.1321 73.1325 24.0944C73.2457 23.8774 73.2645 23.651 73.2645 23.4152C73.2645 21.5944 73.2645 19.7737 73.2645 17.9435C73.2645 17.7359 73.2457 17.5472 73.1891 17.3491C73.1325 17.1416 73.0192 17.0001 72.8306 16.9152C72.6325 16.8208 72.406 16.802 72.1891 16.8397C71.8872 16.8963 71.6702 17.1227 71.6042 17.4246C71.5664 17.5944 71.5664 17.7642 71.5664 17.934C71.5664 18.8774 71.5664 19.802 71.5664 20.7359Z" fill="#A4ABB6"/>
<path d="M75.8211 7.37736C75.8211 8.35849 75.84 9.33962 75.8117 10.3113C75.7928 11.0283 75.6041 11.6887 75.0381 12.1887C74.8211 12.3774 74.5758 12.5189 74.2834 12.6038C73.7645 12.7547 73.2456 12.7642 72.7268 12.7075C72.3305 12.6698 71.9626 12.5094 71.6324 12.2358C71.189 11.8679 71.0098 11.3679 70.8589 10.8396C70.8211 10.6887 70.84 10.5283 70.84 10.3679C70.84 8.35849 70.8494 6.33962 70.84 4.33019C70.84 3.70755 71.1419 2.9717 71.5475 2.62264C71.7079 2.48114 71.8872 2.3868 72.0853 2.29246C72.5853 2.06604 73.1041 2.0283 73.6324 2.07547C74.1985 2.12264 74.7268 2.29246 75.1324 2.70755C75.4721 3.05661 75.6513 3.49057 75.7456 3.96227C75.7928 4.18868 75.8022 4.4151 75.8022 4.64151C75.8211 5.55661 75.8211 6.4717 75.8211 7.37736ZM72.4909 7.42453C72.4909 8.29245 72.4909 9.16038 72.4909 10.0283C72.4909 10.2264 72.5098 10.4151 72.5192 10.6132C72.5381 10.8868 72.7173 11.0849 72.9438 11.1792C73.1985 11.283 73.4815 11.283 73.7456 11.1509C73.906 11.066 74.0192 10.9528 74.0853 10.7642C74.1796 10.5189 74.1702 10.2736 74.1702 10.0283C74.1796 8.25472 74.1702 6.4717 74.1702 4.69812C74.1702 4.58491 74.1796 4.48114 74.1607 4.36793C74.123 4.16038 74.1041 3.96227 73.9343 3.80189C73.689 3.56604 73.3966 3.5283 73.0853 3.59434C72.7928 3.65095 72.5758 3.83019 72.5192 4.14151C72.4815 4.33962 72.4721 4.54717 72.4721 4.74529C72.4909 5.64151 72.4909 6.5283 72.4909 7.42453Z" fill="#A4ABB6"/>
<path d="M35.708 25.9341C35.6514 25.8869 35.5759 25.9058 35.5098 25.9058C35.2646 25.9058 35.0193 25.9058 34.7646 25.9058C34.708 25.9058 34.6419 25.8869 34.5947 25.9435C34.0004 25.9624 33.557 25.6699 33.1891 25.2454C32.9061 24.9246 32.7834 24.519 32.6985 24.1039C32.6514 23.8869 32.6702 23.6699 32.6702 23.4624C32.6608 21.5284 32.6608 19.5944 32.6702 17.6605C32.6702 17.1699 32.7834 16.6888 33.0476 16.2643C33.34 15.802 33.7646 15.5378 34.3023 15.4246C34.6797 15.3397 35.057 15.302 35.4344 15.3492C35.991 15.4152 36.5098 15.5661 36.9061 15.9907C37.1891 16.2926 37.3495 16.6605 37.4532 17.0567C37.5948 17.651 37.5381 18.2454 37.557 18.8492C37.557 18.9435 37.5193 18.9718 37.4344 18.9718C37.0004 18.9718 36.5664 18.9624 36.1419 18.9718C36.0287 18.9718 36.0004 18.9341 36.0004 18.8209C36.0004 18.4341 36.0193 18.0567 35.991 17.6699C35.9627 17.3397 35.84 17.0378 35.5004 16.9058C34.991 16.7077 34.3495 16.9058 34.3306 17.5944C34.3023 18.4435 34.3212 19.302 34.3212 20.151C34.3212 21.3303 34.3306 22.519 34.3212 23.6982C34.3212 24.1416 34.6608 24.4435 34.9721 24.4812C35.1419 24.5001 35.3023 24.5001 35.4627 24.4529C35.8212 24.3492 35.9815 24.0661 35.991 23.736C36.0193 23.0473 36.0004 22.3586 36.0098 21.6699C36.0098 21.5756 35.9627 21.5567 35.8778 21.5473C35.6797 21.5378 35.491 21.5756 35.2929 21.5284C35.2929 21.5095 35.2834 21.5001 35.274 21.5001C35.274 21.0661 35.274 20.6416 35.2646 20.2077C35.2646 20.1133 35.2929 20.0661 35.3966 20.0661C36.0759 20.0661 36.7646 20.0661 37.4438 20.0661C37.5381 20.0661 37.5664 20.1039 37.5664 20.1982C37.5664 20.2171 37.5664 20.2454 37.5664 20.2643C37.5664 21.3963 37.5759 22.5378 37.557 23.6699C37.5381 24.2737 37.3683 24.8492 36.9438 25.3209C36.6797 25.6133 36.3495 25.7926 35.9721 25.8963C35.8778 25.9152 35.7929 25.9152 35.708 25.9341Z" fill="#A4ABB6"/>
<path d="M37.9155 2.17938C38.3872 2.17938 38.8589 2.17938 39.3306 2.16995C39.4532 2.16995 39.5098 2.19825 39.491 2.33033C39.4815 2.36806 39.491 2.4058 39.491 2.44353C39.491 5.03787 39.491 7.64164 39.491 10.236C39.491 10.4152 39.5193 10.5945 39.5664 10.7643C39.6042 10.8869 39.6702 10.9718 39.7551 11.0473C40.057 11.2926 40.5947 11.302 40.8966 11.0567C41.1136 10.8775 41.1513 10.6228 41.1796 10.3681C41.1985 10.2077 41.1796 10.0379 41.1796 9.87749C41.1796 7.4058 41.1796 4.9341 41.1796 2.4624C41.1796 2.4058 41.1702 2.34919 41.1702 2.30202C41.2268 2.28316 41.2174 2.23599 41.2174 2.18882C41.6042 2.15108 41.9815 2.17938 42.3683 2.16995C42.7362 2.16051 42.7362 2.16995 42.7362 2.54731C42.7362 5.03787 42.7362 7.52844 42.7362 10.019C42.7362 10.4813 42.6891 10.9341 42.5381 11.3681C42.3872 11.802 42.1042 12.1322 41.7268 12.3964C41.1513 12.7926 40.5004 12.7737 39.8494 12.7265C39.4532 12.6982 39.1042 12.5756 38.774 12.3586C38.5947 12.2454 38.4721 12.0756 38.34 11.9247C38.1419 11.6982 38.0476 11.4058 37.9438 11.1416C37.8966 11.0284 37.906 10.8775 37.8872 10.7548C37.8683 10.5096 37.8494 10.2549 37.8494 10.0096C37.8494 7.4907 37.8494 4.97183 37.8494 2.45297C37.8494 2.37749 37.8306 2.29259 37.8683 2.21712C37.8966 2.21712 37.9155 2.20768 37.9155 2.17938Z" fill="#A4ABB6"/>
<path d="M57.3872 3.11316C57.4344 2.81127 57.4815 2.49995 57.5382 2.19807V2.2075C57.5853 2.1792 57.6419 2.1792 57.6985 2.1792C58.3872 2.1792 59.0759 2.1792 59.774 2.1792C59.9627 2.1792 59.9627 2.18863 59.991 2.37731C60.057 2.80184 60.1325 3.2358 60.1985 3.66033C60.2268 3.84901 60.2457 4.04712 60.274 4.2358C60.3212 4.53769 60.3872 4.84901 60.4249 5.1509C60.491 5.64146 60.5853 6.13203 60.6608 6.62259C60.7551 7.21693 60.8683 7.81127 60.9532 8.40561C61.0382 8.99995 61.1514 9.59429 61.2363 10.1886C61.3023 10.6603 61.3778 11.1415 61.4721 11.6132C61.5287 11.8773 61.5665 12.1509 61.5948 12.415C61.6136 12.6132 61.6042 12.6132 61.4155 12.6132C60.9815 12.6132 60.5476 12.6037 60.1231 12.6132C59.991 12.6132 59.9532 12.5754 59.9344 12.4433C59.8589 11.9905 59.8589 11.5283 59.708 11.0943C59.6891 11.0377 59.7174 10.9716 59.708 10.9056C59.6985 10.7264 59.6985 10.7264 59.5193 10.7169C58.9532 10.7169 58.3872 10.7169 57.8212 10.7075C57.6891 10.7075 57.6608 10.7641 57.6419 10.8679C57.5948 11.1886 57.5476 11.5094 57.5004 11.8301C57.4627 12.0566 57.4344 12.2735 57.3966 12.5C57.3872 12.566 57.3589 12.5943 57.2929 12.5943C56.8306 12.5943 56.3683 12.5943 55.8872 12.5943C55.8966 12.3207 55.9532 12.066 55.991 11.8207C56.0759 11.2924 56.1608 10.7641 56.2457 10.2358C56.3589 9.56599 56.4627 8.89618 56.5759 8.21693C56.6702 7.61316 56.7929 7.01882 56.8495 6.41505C56.8778 6.14146 56.9627 5.88674 56.9627 5.61316C56.9627 5.47165 57.0193 5.33014 57.0382 5.19807C57.0665 5.00939 57.0665 4.82071 57.1325 4.64146C57.1797 4.61316 57.1985 4.59429 57.1419 4.55656C57.1891 4.29241 57.2268 4.03769 57.2646 3.77354C57.2929 3.57542 57.3212 3.37731 57.3495 3.1792C57.4344 3.1792 57.4344 3.16976 57.3872 3.11316ZM58.6702 4.29241C58.5759 4.58486 58.5476 4.88674 58.491 5.18863C58.4438 5.39618 58.4344 5.6226 58.4061 5.83014C58.3495 6.22637 58.2834 6.63203 58.2174 7.02825C58.1514 7.47165 58.0759 7.91505 58.0287 8.36788C58.0004 8.63203 57.9344 8.89618 57.9155 9.16033C57.9061 9.32071 57.9061 9.32071 58.057 9.32071C58.4532 9.32071 58.8589 9.32071 59.2551 9.32071C59.3117 9.32071 59.3778 9.33957 59.4532 9.28297C59.1985 7.61316 58.9721 5.94335 58.6702 4.29241Z" fill="#A4ABB6"/>
<path d="M85.7928 15.4338C86.5476 15.4338 87.3023 15.4338 88.057 15.4243C88.1608 15.4243 88.2079 15.4526 88.2268 15.5658C88.2645 15.8583 88.2928 16.1507 88.3589 16.4432C88.4249 16.7545 88.4343 17.0753 88.5192 17.3771C88.5664 17.5753 88.6041 17.7734 88.6136 17.9809C88.6324 18.2734 88.7174 18.547 88.7362 18.8394C88.7457 19.047 88.8117 19.2451 88.84 19.4526C88.9155 20.0187 89.0381 20.5847 89.1136 21.1507C89.1513 21.4054 89.1796 21.6696 89.2457 21.9243C89.3023 22.1319 89.3117 22.3583 89.3494 22.5658C89.4532 23.1319 89.5381 23.6979 89.623 24.2639C89.6985 24.7073 89.7645 25.1602 89.84 25.6036C89.8494 25.6507 89.8494 25.6979 89.8589 25.7451C89.8777 25.8394 89.84 25.8771 89.7457 25.8677C89.5381 25.8677 89.3211 25.8677 89.1136 25.8677C88.8683 25.8677 88.623 25.8677 88.3872 25.8677C88.2079 25.8677 88.1796 25.8394 88.1796 25.6696C88.1608 25.2639 88.057 24.8677 88.0192 24.4621C88.0098 24.3394 87.9815 24.2168 87.9721 24.0941C87.9626 24.0092 87.9249 23.9715 87.8306 23.9715C87.2362 23.9715 86.6419 23.9715 86.0381 23.9715C85.9626 23.9715 85.9155 23.9904 85.906 24.0753C85.8683 24.4337 85.7834 24.7922 85.7268 25.1507C85.6985 25.33 85.6608 25.5187 85.6702 25.7073C85.6702 25.83 85.623 25.8677 85.5004 25.8677C85.0947 25.8677 84.6796 25.8677 84.274 25.8677C84.1608 25.8677 84.1325 25.8205 84.1513 25.7262C84.1985 25.4526 84.2362 25.179 84.274 24.896C84.34 24.4149 84.4626 23.9337 84.5004 23.4432C84.5098 23.2639 84.5758 23.0847 84.5947 22.896C84.6419 22.4432 84.7551 21.9904 84.8117 21.5375C84.8494 21.179 84.9249 20.83 84.9721 20.4809C85.0098 20.2262 85.057 19.9621 85.1042 19.6979C85.1325 19.547 85.1419 19.396 85.1513 19.2451C85.1796 19.2451 85.2079 19.2451 85.2174 19.2073C85.2268 19.1885 85.2079 19.1696 85.1891 19.1602C85.1985 19.113 85.2174 19.0658 85.2174 19.0281C85.2174 18.7262 85.3211 18.4526 85.3306 18.1507C85.3306 18.0564 85.3306 17.9715 85.3872 17.8866C85.4438 17.8017 85.3966 17.6979 85.406 17.6036C85.4343 17.2922 85.557 16.9904 85.5853 16.679C85.6042 16.4338 85.6891 16.1979 85.6702 15.9526C85.6985 15.9526 85.7268 15.9526 85.7362 15.9149C85.7457 15.896 85.7268 15.8771 85.6985 15.8677C85.7174 15.7262 85.7457 15.5753 85.7645 15.4338C85.7834 15.4621 85.7928 15.4526 85.7928 15.4338ZM87.1136 18.6696C87.0664 18.2639 87.0098 17.8677 86.9155 17.4526C86.8023 17.7451 86.8023 18.0375 86.7551 18.3205C86.6513 18.9432 86.5664 19.5753 86.4815 20.1979C86.4532 20.3771 86.406 20.5658 86.3872 20.7451C86.3683 20.9621 86.3306 21.1696 86.3023 21.3866C86.2645 21.7356 86.1985 22.0753 86.1419 22.4149C86.123 22.5564 86.1325 22.5658 86.2834 22.5658C86.4909 22.5658 86.6891 22.5658 86.8966 22.5658C87.1513 22.5658 87.4155 22.5658 87.6796 22.5658C87.623 22.3771 87.623 22.1979 87.6042 22.0281C87.557 21.5753 87.4815 21.1319 87.4155 20.6885C87.3777 20.4243 87.3023 20.1602 87.3023 19.8866C87.3023 19.7639 87.2645 19.6413 87.2362 19.5187C87.2268 19.4621 87.1702 19.4149 87.1891 19.33C87.2268 19.1507 87.1796 18.9621 87.123 18.7828V18.7734C87.123 18.7545 87.123 18.7262 87.1136 18.7073C87.123 18.6979 87.123 18.679 87.1136 18.6696Z" fill="#A4ABB6"/>
<path d="M50.5947 15.4339C51.4155 15.4339 52.2457 15.4244 53.0664 15.4339C53.2834 15.4339 53.5098 15.4622 53.7268 15.5471C53.8778 15.6037 54.0476 15.632 54.2079 15.6886C54.6796 15.8773 54.9532 16.2263 55.1608 16.6603C55.2551 16.8584 55.274 17.0754 55.3211 17.2829C55.491 18.0754 55.3966 18.8678 55.3966 19.6603C55.3966 20.198 55.2362 20.7169 54.9061 21.1603C54.623 21.5377 54.2362 21.7546 53.774 21.8584C53.3117 21.9622 52.8494 21.9244 52.3966 21.9433C52.1796 21.9527 52.1891 21.9339 52.1891 22.1509C52.1891 23.2924 52.1891 24.4339 52.1891 25.5848C52.1891 25.632 52.1891 25.6792 52.1891 25.7263C52.1985 25.8395 52.1608 25.8773 52.0476 25.8773C51.5853 25.8773 51.123 25.8773 50.6608 25.8773C50.5853 25.8773 50.5381 25.849 50.5476 25.7735C50.5476 25.7263 50.5476 25.6792 50.5476 25.632C50.5476 22.3301 50.5476 19.0188 50.5476 15.7169C50.5476 15.632 50.5287 15.5471 50.5664 15.4622C50.5853 15.4622 50.5947 15.4527 50.5947 15.4339ZM52.1985 18.6886C52.1985 18.7546 52.1985 18.8112 52.1985 18.8773C52.1985 19.3584 52.1985 19.8301 52.1985 20.3112C52.1985 20.4339 52.2362 20.4716 52.3589 20.4716C52.5759 20.4622 52.8023 20.481 53.0193 20.4622C53.5098 20.4244 53.6985 20.2358 53.7362 19.8301C53.8117 19.0754 53.8023 18.3112 53.7362 17.5565C53.7174 17.3018 53.5759 17.0754 53.2551 17.0094C52.9627 16.9433 52.6702 16.9433 52.3777 16.9433C52.1985 16.9433 52.1985 16.9433 52.1985 17.1226C52.1985 17.6414 52.1985 18.1603 52.1985 18.6886Z" fill="#A4ABB6"/>
<path d="M67.1042 5.68869C66.5947 5.69812 66.0853 5.71699 65.5759 5.67925C65.5853 5.66982 65.5853 5.66038 65.5759 5.65095C65.6042 5.24529 65.5853 4.83963 65.5853 4.43397C65.5853 4.24529 65.5098 4.06604 65.4155 3.9151C65.3023 3.71699 65.0759 3.62265 64.8589 3.57548C64.6136 3.52831 64.3777 3.60378 64.1702 3.73585C64.0381 3.83019 63.9721 3.9717 63.9343 4.12265C63.8966 4.28302 63.8872 4.4434 63.8872 4.61321C63.8872 6.4717 63.8872 8.32076 63.8872 10.1792C63.8872 10.4057 63.8872 10.6321 64.0004 10.8396C64.0476 10.9245 64.1042 10.9906 64.1796 11.0472C64.4721 11.2736 64.9721 11.283 65.2645 11.0755C65.406 10.9717 65.5004 10.8396 65.5287 10.6698C65.557 10.4906 65.5947 10.3019 65.5947 10.1132C65.5853 9.66982 65.5947 9.21698 65.6042 8.77359C65.623 8.77359 65.6325 8.76416 65.623 8.74529C65.8589 8.70755 66.1042 8.73585 66.34 8.73585C66.5947 8.73585 66.8494 8.71699 67.1042 8.74529C67.1042 8.76416 67.1042 8.77359 67.123 8.77359C67.1419 9.34906 67.1513 9.9151 67.123 10.4906C67.1042 10.9151 66.9815 11.3302 66.774 11.7076C66.4438 12.283 65.9155 12.5755 65.2834 12.6887C64.7457 12.783 64.1985 12.7547 63.6796 12.5943C63.34 12.4811 63.0287 12.2925 62.8117 11.9906C62.5476 11.6321 62.3589 11.2359 62.3023 10.783C62.2645 10.5094 62.2457 10.2453 62.2457 9.9717C62.2457 8.27359 62.2457 6.57548 62.2457 4.87736C62.2457 4.55661 62.2457 4.22642 62.3023 3.9151C62.4249 3.22642 62.7362 2.65095 63.406 2.3302C63.6513 2.21699 63.9155 2.14152 64.1796 2.11321C64.906 2.01887 65.6136 2.07548 66.2457 2.50944C66.6513 2.79246 66.8777 3.18869 67.0004 3.64152C67.0853 3.93397 67.1513 4.24529 67.1419 4.55661C67.1325 4.92453 67.1419 5.29246 67.1325 5.66038C67.1136 5.66038 67.1042 5.66982 67.1042 5.68869Z" fill="#A4ABB6"/>
<path d="M78.8683 25.9339C78.8211 25.8962 78.7645 25.9056 78.7174 25.9056C78.4249 25.9056 78.1325 25.9056 77.84 25.9056C77.7928 25.9056 77.7457 25.8962 77.7079 25.9433C77.3589 25.9433 77.0664 25.7924 76.7928 25.6037C76.3966 25.3301 76.123 24.9622 76.0004 24.4905C75.8872 24.0754 75.8306 23.6509 75.8306 23.2264C75.8306 21.4811 75.8306 19.7358 75.8306 17.9905C75.8306 17.5471 75.8966 17.1226 76.0381 16.7075C76.2362 16.1509 76.5947 15.7358 77.1513 15.5188C77.8306 15.2547 78.5287 15.2547 79.2362 15.4622C79.906 15.6603 80.3117 16.1037 80.5381 16.7452C80.6796 17.1226 80.7362 17.5094 80.7362 17.915C80.7362 18.2169 80.7268 18.5094 80.7362 18.8113C80.7362 18.9433 80.6891 18.9622 80.5758 18.9622C80.1702 18.9528 79.7551 18.9622 79.3494 18.9528C79.1796 18.9528 79.1796 18.9528 79.1796 18.783C79.1796 18.4622 79.1702 18.1415 79.1796 17.8207C79.1891 17.6037 79.0947 17.415 79.0476 17.2169C79.0381 17.1792 79.0192 17.1698 79.0004 17.1415C78.6325 16.7358 78.1136 16.7075 77.7174 17.0377C77.5381 17.1886 77.4815 17.4245 77.4815 17.6509C77.4815 19.5943 77.4815 21.5377 77.4815 23.4716C77.4815 23.5943 77.4909 23.7264 77.5192 23.849C77.6041 24.2264 77.7174 24.3679 78.1042 24.4528C78.4626 24.5282 78.7928 24.4716 79.0192 24.1415C79.1419 23.9716 79.1608 23.7641 79.1702 23.5566C79.1796 23.1226 79.1796 22.6792 79.1796 22.2452C79.1796 22.1981 79.1796 22.1509 79.1796 22.1037C79.1796 22.0094 79.2174 21.9811 79.3117 21.9811C79.7457 21.9811 80.1796 21.9905 80.6042 21.9811C80.7079 21.9811 80.7362 22.0188 80.7362 22.1226C80.7174 22.7547 80.7834 23.3867 80.689 24.0188C80.6136 24.4905 80.4532 24.9245 80.1419 25.283C79.8589 25.6037 79.5098 25.8018 79.0947 25.8867C79.0098 25.9056 78.9438 25.9528 78.8683 25.9339Z" fill="#A4ABB6"/>
<path d="M67.2362 25.9341C67.1891 25.8869 67.1325 25.9058 67.0853 25.9058C66.8117 25.9058 66.5476 25.9058 66.274 25.9058C66.2174 25.9058 66.1608 25.8963 66.123 25.9435C65.8117 25.9341 65.5098 25.868 65.2551 25.6605C65.123 25.5473 64.9438 25.4907 64.8306 25.3397C64.5098 24.9529 64.2928 24.5284 64.2645 24.0284C64.2551 23.9529 64.2362 23.8963 64.2268 23.8303C64.2834 23.802 64.274 23.7737 64.2268 23.7454C64.2268 23.4529 64.2268 23.1699 64.2268 22.8775C64.2268 22.7548 64.2645 22.7171 64.3872 22.7265C64.8023 22.736 65.2174 22.736 65.6325 22.7265C65.7457 22.7265 65.7834 22.7548 65.7834 22.868C65.7834 23.1416 65.7834 23.4152 65.7928 23.6888C65.7928 23.8397 65.8211 23.9907 65.8966 24.1133C66.0947 24.4246 66.3966 24.519 66.7457 24.4718C67.0759 24.4246 67.2928 24.2454 67.3966 23.9246C67.4815 23.6416 67.4627 23.3775 67.4061 23.085C67.3023 22.5662 67.0098 22.1982 66.6796 21.8303C66.491 21.6133 66.274 21.4152 66.0664 21.2171C65.9061 21.0662 65.7268 20.9246 65.557 20.7737C65.1985 20.4246 64.8872 20.0379 64.6513 19.5945C64.5098 19.3209 64.3494 19.0473 64.3117 18.736C64.2457 18.1794 64.2079 17.6133 64.3306 17.0756C64.5193 16.2077 65.0853 15.519 66.1136 15.3775C66.5759 15.3114 67.0287 15.302 67.4815 15.4246C67.9438 15.5567 68.3494 15.7643 68.623 16.1699C68.8494 16.4907 68.9627 16.8492 69.0287 17.236C69.0759 17.519 69.0947 17.7926 69.1042 18.0756C69.1042 18.1322 69.123 18.1982 69.0759 18.2548C69.057 18.2454 69.0381 18.2548 69.0381 18.2737C68.5947 18.2737 68.1608 18.2737 67.7174 18.2737C67.5476 18.2737 67.5476 18.2643 67.5476 18.1039C67.5381 17.8114 67.5476 17.519 67.4344 17.236C67.3777 17.1039 67.3117 17.0001 67.1891 16.9341C66.8589 16.7643 66.5287 16.7643 66.2079 16.9624C66.0853 17.0379 66.0004 17.1699 65.9721 17.302C65.8777 17.7171 65.8589 18.1416 66.0193 18.5567C66.0664 18.6699 66.1325 18.7831 66.1985 18.8775C66.3589 19.0945 66.4815 19.3303 66.6891 19.519C67.1042 19.8775 67.491 20.2643 67.8872 20.6511C68.2457 21.0001 68.5476 21.3869 68.7645 21.8303C69.1042 22.5473 69.2174 23.2926 69.0476 24.0756C68.9815 24.368 68.9155 24.6416 68.774 24.9058C68.4344 25.5095 67.9249 25.868 67.2362 25.9341Z" fill="#A4ABB6"/>
<path d="M18.991 3.99982C19.0004 3.85831 18.8966 3.76397 18.8778 3.62246C18.84 3.37718 18.84 3.15077 18.9344 2.91492C19.0004 2.75454 19.0664 2.56586 18.9627 2.38662C18.9344 2.33945 18.9815 2.30171 19.0193 2.27341C19.1985 2.12247 19.1985 2.12247 19.0476 1.94322C19.0381 1.92435 19.0381 1.89605 19.0287 1.87718C19.6136 1.84888 20.2079 1.84888 20.7929 1.87718C21.0476 1.88662 21.2457 2.03756 21.3778 2.25454C21.6419 2.69794 21.8872 3.1602 22.1513 3.61303C22.5287 4.27341 22.9155 4.93378 23.2929 5.6036C23.8683 6.61303 24.4438 7.62246 25.0193 8.6319C25.3495 9.20737 25.6702 9.77341 26.0004 10.3394C26.0664 10.4621 26.0853 10.5659 26.0098 10.6885C25.6513 11.3206 25.2929 11.9527 24.9249 12.5847C24.9061 12.613 24.8872 12.6319 24.8589 12.6791C24.7929 12.613 24.7646 12.5376 24.7174 12.4715C24.4344 12.0376 24.208 11.5659 23.9438 11.113C23.7457 10.7734 23.5759 10.4055 23.3683 10.0753C23.1325 9.69794 22.9438 9.29227 22.6985 8.91492C22.5098 8.61303 22.3306 8.30171 22.1513 7.98095C21.9627 7.64133 21.8023 7.29228 21.5759 6.98095C21.4721 6.83001 21.3872 6.6602 21.3117 6.49982C20.9344 5.73567 20.4815 5.01869 20.057 4.27341C19.9532 4.08473 19.7929 4.01869 19.5947 4.00926C19.3966 4.00926 19.1891 3.99982 18.991 3.99982Z" fill="#A4ABB6"/>
<path d="M32.84 2.18884C32.8966 2.16053 32.9626 2.16997 33.0287 2.16997C34.3211 2.16997 35.6136 2.16997 36.9155 2.16997C36.9532 2.16997 36.9909 2.16997 37.0287 2.16997C37.1041 2.16053 37.1419 2.19827 37.1419 2.27374C37.1419 2.7077 37.1419 3.13223 37.1419 3.56619C37.1419 3.66997 37.0758 3.66997 37.0004 3.66997C36.6136 3.66997 36.2268 3.66997 35.8494 3.66997C35.4343 3.66997 35.0192 3.66997 34.6041 3.66997C34.4815 3.66997 34.4438 3.7077 34.4438 3.83034C34.4438 4.77374 34.4438 5.72657 34.4438 6.66997C34.4438 6.79261 34.4815 6.83034 34.6041 6.83034C35.1513 6.82091 35.6985 6.83034 36.2551 6.83034C36.3022 6.83034 36.3494 6.83034 36.3966 6.83034C36.5664 6.83034 36.5664 6.83034 36.5664 7.00015C36.5664 7.28317 36.5664 7.56619 36.5664 7.84921C36.5664 7.96242 36.557 8.08506 36.5664 8.19827C36.5758 8.30204 36.5098 8.33034 36.4249 8.33978C36.3966 8.28317 36.3683 8.28317 36.34 8.33978C36.1136 8.30204 35.8872 8.32091 35.6607 8.32091C35.3117 8.32091 34.9721 8.32091 34.623 8.32091C34.4438 8.32091 34.4438 8.32091 34.4438 8.50015C34.4438 8.61336 34.4438 8.736 34.4438 8.84921C34.4438 9.98129 34.4438 11.1134 34.4438 12.2549C34.4438 12.3303 34.4438 12.4152 34.4438 12.4907C34.4438 12.5756 34.406 12.6134 34.3211 12.6134C33.8589 12.6134 33.3966 12.6134 32.9343 12.6134C32.8494 12.6134 32.8022 12.5851 32.8117 12.4907C32.8117 12.453 32.8117 12.4152 32.8117 12.3775C32.8117 9.10393 32.8117 5.82091 32.8117 2.54732C32.8117 2.48129 32.8022 2.42468 32.8022 2.35865C32.8588 2.31148 32.8306 2.25487 32.84 2.18884Z" fill="#A4ABB6"/>
<path d="M83.3588 20.6416C83.3588 22.302 83.3588 23.9624 83.3588 25.6228C83.3588 25.8775 83.3966 25.8775 83.1041 25.8775C82.6985 25.8775 82.2834 25.8775 81.8777 25.8775C81.7079 25.8775 81.7079 25.8775 81.7079 25.7077C81.7079 22.3586 81.7079 19.0096 81.7079 15.6605C81.7079 15.6228 81.7079 15.585 81.7079 15.5473C81.7079 15.4624 81.7551 15.4341 81.8211 15.4341C82.2928 15.4341 82.7645 15.4341 83.2362 15.4341C83.3211 15.4341 83.3494 15.4718 83.3494 15.5473C83.3494 15.6133 83.3494 15.6699 83.3494 15.736C83.3588 17.368 83.3588 19.0001 83.3588 20.6416Z" fill="#A4ABB6"/>
<path d="M68.1324 12.5186C68.1324 12.462 68.1419 12.4054 68.1419 12.3582C68.1419 9.06579 68.1419 5.77334 68.1419 2.47145C68.1419 2.41485 68.1324 2.35824 68.1324 2.31107C68.1891 2.2922 68.1796 2.24503 68.1796 2.19787C68.4155 2.16013 68.6513 2.18843 68.8872 2.179C69.1419 2.16956 69.3872 2.179 69.6419 2.179C69.7551 2.179 69.8023 2.21673 69.7928 2.32994C69.7928 2.36768 69.7928 2.40541 69.7928 2.44315C69.7928 5.74503 69.7928 9.05635 69.7928 12.3582C69.7928 12.6413 69.8211 12.613 69.5475 12.613C69.1702 12.613 68.7928 12.613 68.4155 12.613C68.34 12.613 68.2551 12.6318 68.1796 12.5941C68.1796 12.5564 68.1796 12.5281 68.1324 12.5186Z" fill="#A4ABB6"/>
<path d="M18.189 22.4247C18.189 22.3681 18.1607 22.3398 18.1041 22.3304C17.8589 22.2643 17.8022 22.1228 17.8872 21.8304C17.9438 21.6606 17.9532 21.5002 17.9532 21.3304C17.9532 21.1322 17.8872 21.0473 17.7079 20.9813C17.5287 20.9153 17.4909 20.8775 17.5381 20.7266C17.5853 20.5756 17.5664 20.4624 17.4438 20.3587C17.4343 20.3492 17.4343 20.3115 17.4343 20.2926C17.5192 20.2926 17.6041 20.2832 17.689 20.2832C17.9438 20.2926 18.123 20.1889 18.2456 19.9624C18.6136 19.3115 18.9909 18.6606 19.3683 18.0096C19.9721 16.9624 20.5664 15.9153 21.1607 14.8681C21.2362 14.736 21.2739 14.736 21.3494 14.8681C21.4249 15.0002 21.4909 15.1228 21.5664 15.2549C21.84 15.736 22.1136 16.2266 22.3966 16.6983C22.4626 16.8021 22.4626 16.8775 22.406 16.9719C22.0853 17.5379 21.7362 18.0945 21.4343 18.67C21.2079 19.1039 20.9155 19.4907 20.689 19.9153C20.5004 20.2549 20.2834 20.5851 20.1136 20.9341C19.9343 21.3209 19.6796 21.67 19.5004 22.0662C19.3777 22.3398 19.1796 22.4436 18.8777 22.4341C18.6607 22.4153 18.4249 22.4247 18.189 22.4247Z" fill="#A4ABB6"/>
<path d="M72.5193 1.66038C72.4627 1.63208 72.4532 1.58491 72.491 1.54717C72.7362 1.20755 72.9155 0.820755 73.1702 0.481133C73.2457 0.377359 73.3023 0.264151 73.3683 0.141509C73.4061 0.0566038 73.4721 0 73.5664 0C74.0476 0 74.5381 0 75.0098 0C75.057 0.0849056 74.991 0.113208 74.9721 0.141509C74.557 0.59434 74.1325 1.04717 73.7268 1.50943C73.6325 1.61321 73.5381 1.65094 73.4061 1.65094C73.1325 1.65094 72.8589 1.63208 72.5853 1.66038C72.5476 1.65094 72.5381 1.65094 72.5193 1.66038Z" fill="#A4ABB6"/>
<path d="M32.84 2.18848C32.84 2.24508 32.8683 2.31112 32.7929 2.34885C32.7268 2.25451 32.7362 2.21678 32.84 2.18848Z" fill="#A4ABB6"/>
<path d="M45.3211 5.26424C45.2928 5.24537 45.2834 5.21707 45.2834 5.18876C45.2834 5.16046 45.2834 5.12273 45.3211 5.11329C45.3589 5.10386 45.3683 5.1416 45.3683 5.1699C45.3683 5.1982 45.3683 5.23594 45.3683 5.26424H45.3494H45.3211Z" fill="#A4ABB6"/>
<path d="M50.274 2.19811C50.274 2.24528 50.2834 2.28302 50.2268 2.31132C50.1702 2.30189 50.1796 2.26415 50.1891 2.22641C50.2079 2.18868 50.2362 2.18868 50.274 2.19811Z" fill="#A4ABB6"/>
<path d="M41.2268 2.19811C41.2268 2.24528 41.2362 2.28302 41.1796 2.31132C41.123 2.30189 41.1325 2.26415 41.1419 2.22641C41.1608 2.18868 41.1891 2.18868 41.2268 2.19811Z" fill="#A4ABB6"/>
<path d="M76.8966 2.18875C76.906 2.23592 76.906 2.28309 76.8494 2.30196C76.7928 2.29252 76.8023 2.24535 76.8211 2.20762C76.8306 2.17931 76.8589 2.17931 76.8966 2.18875Z" fill="#A4ABB6"/>
<path d="M47.6324 2.19811C47.6324 2.24528 47.6419 2.28302 47.5853 2.31132C47.5287 2.30189 47.5381 2.26415 47.5475 2.22641C47.5664 2.18868 47.6041 2.18868 47.6324 2.19811Z" fill="#A4ABB6"/>
<path d="M68.1796 2.19804C68.1796 2.24521 68.189 2.28294 68.1324 2.31124C68.0947 2.31124 68.0853 2.27351 68.0947 2.24521C68.1041 2.1886 68.1324 2.1886 68.1796 2.19804Z" fill="#A4ABB6"/>
<path d="M68.1324 12.519C68.1796 12.5285 68.1796 12.5662 68.1702 12.5945C68.1419 12.6039 68.1041 12.6039 68.0947 12.5756C68.0853 12.5473 68.0947 12.519 68.1324 12.519Z" fill="#A4ABB6"/>
<path d="M47.6041 8.29248C47.6324 8.32078 47.6324 8.34909 47.5947 8.35852C47.5475 8.36795 47.5381 8.33022 47.5381 8.29248C47.5664 8.29248 47.5853 8.29248 47.6041 8.29248Z" fill="#A4ABB6"/>
<path d="M36.3306 8.33982C36.3589 8.28321 36.3872 8.28321 36.4155 8.33982C36.3872 8.38699 36.3589 8.38699 36.3306 8.33982Z" fill="#A4ABB6"/>
<path d="M64.2174 23.7451C64.274 23.7734 64.274 23.8017 64.2174 23.83C64.1608 23.8017 64.1608 23.7734 64.2174 23.7451Z" fill="#A4ABB6"/>
<path d="M69.9155 23.6035C69.9721 23.6318 69.9721 23.6601 69.9155 23.6884C69.8589 23.6601 69.8589 23.6318 69.9155 23.6035Z" fill="#A4ABB6"/>
<path d="M57.1513 4.57568C57.2079 4.61342 57.1891 4.63229 57.1419 4.66059C57.0947 4.62285 57.0947 4.59455 57.1513 4.57568Z" fill="#A4ABB6"/>
<path d="M57.3871 3.11328C57.4343 3.16045 57.4343 3.17932 57.3494 3.19819C57.34 3.16045 57.34 3.12272 57.3871 3.11328Z" fill="#A4ABB6"/>
<path d="M85.189 19.1885C85.2079 19.1979 85.2268 19.2073 85.2173 19.2356C85.2079 19.2639 85.1796 19.2734 85.1513 19.2734C85.1419 19.2356 85.1324 19.1979 85.189 19.1885Z" fill="#A4ABB6"/>
<path d="M56.1324 17.519C56.1607 17.5662 56.1607 17.6039 56.1041 17.6322C56.0381 17.5756 56.0853 17.5473 56.1324 17.519Z" fill="#A4ABB6"/>
<path d="M85.6985 15.896C85.7174 15.9054 85.7362 15.9149 85.7362 15.9432C85.7268 15.9809 85.6985 15.9809 85.6702 15.9809C85.6607 15.9432 85.6513 15.9054 85.6985 15.896Z" fill="#A4ABB6"/>
<path d="M37.9155 2.17907C37.9061 2.20737 37.8872 2.21681 37.8589 2.20737C37.8589 2.16964 37.8872 2.16964 37.9155 2.17907Z" fill="#A4ABB6"/>
<path d="M65.6324 8.75488C65.6324 8.77375 65.6324 8.78318 65.6136 8.78318C65.5947 8.76432 65.6041 8.75488 65.6324 8.75488Z" fill="#A4ABB6"/>
<path d="M57.5381 2.20751C57.5381 2.20751 57.5287 2.20751 57.5192 2.20751C57.5192 2.18864 57.5192 2.18864 57.5381 2.20751Z" fill="#A4ABB6"/>
<path d="M92.2551 15.4623C92.2362 15.4623 92.2268 15.4623 92.2268 15.4434C92.2457 15.4245 92.2551 15.434 92.2551 15.4623Z" fill="#A4ABB6"/>
<path d="M43.906 2.17932C43.906 2.19819 43.8966 2.20762 43.8777 2.20762C43.8683 2.17932 43.8777 2.16988 43.906 2.17932Z" fill="#A4ABB6"/>
<path d="M80.6607 2.18848L80.6513 2.20734H80.6418V2.18848H80.6607Z" fill="#A4ABB6"/>
<path d="M69.0381 18.2735C69.0475 18.2547 69.057 18.2452 69.0758 18.2547C69.0758 18.283 69.0664 18.2924 69.0381 18.2735Z" fill="#A4ABB6"/>
<path d="M85.7928 15.4339C85.7928 15.4527 85.7834 15.4622 85.7645 15.4527C85.7645 15.4339 85.7645 15.4244 85.7928 15.4339Z" fill="#A4ABB6"/>
<path d="M50.5947 15.4339C50.5947 15.4527 50.5853 15.4622 50.5664 15.4527C50.5664 15.4339 50.5758 15.4244 50.5947 15.4339Z" fill="#A4ABB6"/>
<path d="M35.2551 21.4907C35.274 21.4907 35.2834 21.5002 35.274 21.519C35.2551 21.5285 35.2457 21.519 35.2551 21.4907Z" fill="#A4ABB6"/>
<path d="M78.3683 5.16957C78.3872 5.13183 78.3966 5.1507 78.3966 5.179H78.3777L78.3683 5.16957Z" fill="#A4ABB6"/>
<path d="M38.6702 15.4339C38.6702 15.4527 38.6513 15.4622 38.6324 15.4527C38.6419 15.4339 38.6513 15.4244 38.6702 15.4339Z" fill="#A4ABB6"/>
<path d="M78.3494 5.21678C78.3306 5.21678 78.3306 5.20734 78.34 5.18848C78.34 5.18848 78.3494 5.18848 78.3589 5.18848L78.3683 5.20735L78.3494 5.21678Z" fill="#A4ABB6"/>
<path d="M65.5853 5.66016C65.5947 5.66959 65.5947 5.67903 65.5853 5.68846C65.5664 5.69789 65.557 5.69789 65.557 5.67903C65.557 5.66959 65.5759 5.66016 65.5853 5.66016Z" fill="#A4ABB6"/>
<path d="M72.5192 1.6604C72.5287 1.65096 72.5475 1.65096 72.557 1.6604C72.5475 1.66983 72.5475 1.67926 72.5381 1.69813C72.5381 1.67926 72.5287 1.66983 72.5192 1.6604Z" fill="#A4ABB6"/>
<path d="M90.623 25.8208C90.6419 25.8208 90.6513 25.8397 90.6419 25.8585C90.623 25.8491 90.6136 25.8397 90.623 25.8208Z" fill="#A4ABB6"/>
<path d="M67.1041 5.68862C67.1041 5.66975 67.1136 5.66031 67.1324 5.65088C67.1419 5.67918 67.1324 5.69805 67.1041 5.68862Z" fill="#A4ABB6"/>
<path d="M82.0475 12.6037C82.0475 12.5848 82.057 12.5754 82.0759 12.5659C82.0853 12.5942 82.0758 12.6037 82.0475 12.6037Z" fill="#A4ABB6"/>
<path d="M76.8683 12.5659C76.8872 12.5659 76.8966 12.5754 76.8872 12.5942C76.8683 12.5942 76.8589 12.5848 76.8683 12.5659Z" fill="#A4ABB6"/>
<path d="M67.1324 8.78318C67.1136 8.78318 67.1041 8.77375 67.1136 8.75488C67.1324 8.75488 67.1419 8.76432 67.1324 8.78318Z" fill="#A4ABB6"/>
<path d="M50.2456 12.5659C50.2645 12.5659 50.2739 12.5754 50.2645 12.5942C50.2456 12.5942 50.2362 12.5942 50.2456 12.5659Z" fill="#A4ABB6"/>
<path d="M87.1136 18.7077C87.1042 18.6982 87.0947 18.6982 87.0759 18.6888C87.0853 18.6794 87.0947 18.6794 87.1136 18.6699C87.123 18.6794 87.123 18.6982 87.1136 18.7077Z" fill="#A4ABB6"/>
<path d="M87.123 18.7829C87.1136 18.7923 87.1042 18.7923 87.0947 18.7734C87.1042 18.7734 87.1136 18.7734 87.123 18.7734V18.7829Z" fill="#A4ABB6"/>
</g>
<defs>
<clipPath id="clip0_547_16005">
<rect fill="white" height="26" transform="translate(0.739746)" width="94.2135"/>
</clipPath>
</defs>
</svg>