<?xml version="1.0" encoding="utf-8"?>
<svg xmlns="http://www.w3.org/2000/svg" fill="none" height="26" viewBox="0 0 65 26" width="65">
<g clip-path="url(#clip0_547_16170)">
<path d="M1.819 0.0237236C1.28135 0.126818 0.7674 0.480286 0.503133 0.931325C0.415651 1.08229 0.331815 1.32529 0.288074 1.56278C0.258913 1.71926 0.255268 1.85918 0.255268 2.85146C0.255268 3.86032 0.258913 3.98182 0.289896 4.14935C0.37191 4.60039 0.506778 4.85261 0.827544 5.15637C1.15924 5.47302 1.50553 5.63318 1.96116 5.68841C2.18169 5.71418 2.52068 5.7013 2.73574 5.65895C3.32806 5.54481 3.84384 5.16373 4.0917 4.65746C4.26302 4.31136 4.294 4.10333 4.30494 3.26016L4.31405 2.59373H3.27338H2.23272V2.98033V3.36694H2.80499C3.29708 3.36694 3.37909 3.37062 3.39914 3.39455C3.41736 3.41664 3.41919 3.48108 3.4119 3.65965C3.39003 4.06651 3.30619 4.30215 3.10024 4.52123C2.91252 4.7219 2.69382 4.8342 2.40404 4.87654C2.1908 4.90784 1.9885 4.86918 1.75886 4.75503C1.49824 4.62433 1.35426 4.46232 1.25402 4.18249C1.16836 3.94316 1.15378 3.77748 1.14466 2.99322C1.13008 1.73215 1.18476 1.43943 1.49277 1.12831C1.76979 0.84664 2.15799 0.743546 2.54984 0.844799C2.94715 0.947894 3.20959 1.20379 3.35175 1.63274L3.39367 1.75608L3.84201 1.76161L4.29218 1.76529V1.69717C4.29218 1.57567 4.20288 1.28479 4.10081 1.07492C3.84384 0.548402 3.41372 0.196775 2.85056 0.0513382C2.65554 -0.000209129 2.03042 -0.0149369 1.819 0.0237236Z" fill="#A4ABB6"/>
<path d="M22.122 0.0255577C21.7356 0.0955148 21.3547 0.301704 21.0668 0.598102C20.8608 0.807973 20.7132 1.06939 20.6439 1.35106C20.5638 1.66955 20.5583 1.7616 20.5583 2.86987C20.5583 4.00575 20.5656 4.0978 20.6622 4.42549C20.7661 4.78264 21.0394 5.13243 21.4021 5.37912C21.9689 5.76388 22.8456 5.81543 23.4962 5.50246C23.7003 5.40489 23.8461 5.3018 24.0266 5.12691C24.3619 4.80105 24.5077 4.46231 24.5606 3.88609C24.5861 3.60258 24.5715 1.75424 24.5423 1.58118C24.4694 1.14487 24.3564 0.905545 24.0958 0.627557C23.7896 0.301704 23.4215 0.0973558 23.0114 0.0255577C22.8219 -0.00942085 22.3061 -0.00757987 22.122 0.0255577ZM22.8073 0.835588C22.995 0.881612 23.2283 1.01416 23.3504 1.14671C23.5181 1.32713 23.6019 1.52595 23.6511 1.8739C23.6839 2.10034 23.6839 3.58601 23.6511 3.83638C23.6037 4.18801 23.5181 4.38499 23.3285 4.57277C23.0552 4.84339 22.636 4.95201 22.2806 4.84155C21.7958 4.69243 21.5607 4.39972 21.4768 3.83638C21.4367 3.57496 21.4422 2.04143 21.4823 1.79105C21.5188 1.5775 21.5807 1.39524 21.6591 1.27926C21.7994 1.07491 22.0564 0.894499 22.2933 0.837429C22.4337 0.80245 22.6633 0.80245 22.8073 0.835588Z" fill="#A4ABB6"/>
<path d="M5.49505 2.84241V5.6499H5.94157H6.38809L6.39174 4.48456L6.39721 3.32107H6.88747H7.37773L7.95912 4.48456L8.54233 5.6499H9.05993H9.57753V5.60756C9.57753 5.58547 9.3005 5.02949 8.95969 4.37595L8.34367 3.18483L8.40928 3.16274C8.53686 3.12224 8.78837 2.97864 8.90501 2.88107C9.11825 2.70434 9.29321 2.41899 9.36794 2.13364C9.40803 1.97531 9.42443 1.55741 9.3971 1.37884C9.36794 1.1929 9.28592 0.951728 9.20209 0.808132C9.11825 0.662695 8.86127 0.395753 8.71365 0.301863C8.51681 0.174836 8.26895 0.0901511 7.9901 0.0533316C7.91538 0.0441267 7.32488 0.0349218 6.67605 0.0349218H5.49505V2.84241ZM7.88257 0.889135C8.1596 0.981184 8.32362 1.11005 8.42022 1.3144C8.50405 1.48929 8.53322 1.66419 8.50588 1.82803C8.44756 2.19255 8.19969 2.43924 7.82243 2.51104C7.63471 2.54786 6.44459 2.55154 6.40996 2.51656C6.39356 2.49999 6.38809 2.29012 6.38809 1.6826C6.38809 1.23524 6.39356 0.863362 6.40085 0.855998C6.40814 0.848634 6.72344 0.844952 7.09888 0.848634C7.69485 0.855998 7.79509 0.861521 7.88257 0.889135Z" fill="#A4ABB6"/>
<path d="M10.507 1.99923C10.507 3.67452 10.5107 3.99117 10.5344 4.13845C10.6036 4.56187 10.7512 4.84722 11.0702 5.15835C11.4256 5.50629 11.8247 5.67014 12.3842 5.69776C12.7979 5.71985 13.1752 5.64805 13.5051 5.48604C14.0008 5.24119 14.3289 4.83618 14.4838 4.27468C14.5239 4.13108 14.5239 4.12556 14.5294 2.08208L14.5366 0.0349098H14.0901H13.6436L13.6363 1.99923C13.6308 3.82548 13.629 3.97276 13.598 4.07401C13.4777 4.47719 13.208 4.74597 12.8216 4.85091C12.6667 4.89141 12.3952 4.89325 12.2384 4.85091C12.0616 4.80488 11.8685 4.70363 11.7463 4.58765C11.6607 4.50848 11.6169 4.44773 11.555 4.31702C11.4001 3.99669 11.411 4.17343 11.4037 1.98082L11.3982 0.0349098H10.9535H10.507V1.99923Z" fill="#A4ABB6"/>
<path d="M15.847 2.84057V5.6499H16.2936H16.7401L16.7437 4.5582L16.7492 3.46834L17.5602 3.4573C18.3166 3.44809 18.3822 3.44441 18.5225 3.40759C19.0292 3.2732 19.3882 2.98601 19.6087 2.54417C19.8165 2.12259 19.8366 1.52795 19.6561 1.04378C19.565 0.797086 19.3135 0.493325 19.0602 0.323955C18.9052 0.219019 18.7649 0.158267 18.5262 0.0938327L18.353 0.0459673L17.1009 0.0386034L15.847 0.0330805V2.84057ZM18.2163 0.889135C18.3767 0.942523 18.5571 1.04194 18.6355 1.1211C18.7194 1.20578 18.8214 1.40277 18.8542 1.54452C18.8888 1.69364 18.8816 1.90535 18.836 2.04343C18.743 2.32694 18.5663 2.49631 18.2619 2.59572C18.1398 2.63622 18.1015 2.63806 17.4636 2.64543C16.957 2.65095 16.7875 2.64727 16.7674 2.6307C16.7437 2.61045 16.7401 2.47606 16.7401 1.73783C16.7401 1.26101 16.7455 0.863361 16.7528 0.855997C16.7619 0.848633 17.07 0.844951 17.4418 0.848633C18.0268 0.855997 18.1288 0.86152 18.2163 0.889135Z" fill="#A4ABB6"/>
<path d="M49.265 3.70929C49.2322 3.79397 49.265 4.31497 49.3197 4.58744C49.4053 5.02191 49.6405 5.46374 49.9229 5.72332C50.3093 6.08047 50.7139 6.2885 54.3462 7.99692C57.5393 9.49916 58.5563 9.9815 59.3327 10.3626C59.668 10.5264 60.1273 10.751 60.3533 10.8596C60.5793 10.9683 60.9875 11.1671 61.2627 11.2996C61.7986 11.5611 61.8697 11.5813 61.8806 11.4837C61.8842 11.4561 61.8733 11.4267 61.8533 11.4083C61.835 11.3935 60.849 10.7676 59.6607 10.022C54.7946 6.96045 53.5079 6.15779 51.8512 5.15262C51.1404 4.71999 50.3057 4.21188 49.9958 4.02226C49.4947 3.71665 49.4272 3.67983 49.3561 3.67983C49.2996 3.67983 49.2723 3.68904 49.265 3.70929Z" fill="#A4ABB6"/>
<path d="M48.7875 7.22581C48.7602 7.33627 48.8732 7.87568 48.9789 8.14262C49.07 8.3709 49.2158 8.58077 49.4436 8.80721C49.7425 9.10729 50.0177 9.28403 50.4023 9.42946C50.497 9.46444 51.5523 9.75163 52.7442 10.0683C58.0059 11.4601 61.2482 12.3253 62.5476 12.6843C63.1928 12.8629 63.2748 12.8739 63.2839 12.7911C63.2876 12.7653 63.2785 12.7359 63.2657 12.7248C63.2183 12.6843 59.925 11.4067 52.6258 8.5955C51.0274 7.97877 49.5475 7.40807 49.3361 7.32707C48.906 7.15954 48.8076 7.14113 48.7875 7.22581Z" fill="#A4ABB6"/>
<path d="M4.2375 8.74441C2.92892 8.80332 1.87914 9.19361 1.17018 9.88214C0.670805 10.3682 0.377377 10.9444 0.273493 11.6421C0.237042 11.887 0.237042 12.5147 0.273493 12.7743C0.370087 13.4573 0.623419 13.9691 1.11004 14.4606C1.57114 14.9264 2.14341 15.2596 2.95626 15.5358C3.13487 15.5947 3.8894 15.8064 4.63299 16.0034C5.37659 16.2022 6.03634 16.3826 6.10013 16.4066C6.57399 16.587 6.86924 16.83 7.04056 17.1816C7.15538 17.4154 7.19547 17.6124 7.18454 17.883C7.1736 18.1444 7.14262 18.2715 7.04238 18.4795C6.85102 18.8716 6.4209 19.1459 5.84133 19.2435C5.52239 19.2969 5.13237 19.3079 2.91617 19.319C1.70418 19.3263 0.696321 19.3356 0.679918 19.3392C0.648935 19.3484 0.647112 19.4147 0.647112 20.3978V21.4453H2.93986C5.23807 21.4453 5.75385 21.4343 6.16028 21.3809C8.15413 21.1176 9.42626 19.9965 9.6158 18.3341C9.64314 18.0947 9.62673 17.3915 9.58846 17.1282C9.47911 16.3863 9.27134 15.9187 8.85034 15.4769C8.46578 15.0719 8.00286 14.7939 7.31758 14.5582C7.17178 14.5067 6.34982 14.271 5.48958 14.0335C4.62753 13.7961 3.85295 13.5751 3.76729 13.5438C3.43923 13.4279 3.12576 13.2401 2.98725 13.0799C2.75578 12.813 2.64643 12.4411 2.68653 12.0655C2.75032 11.4967 3.04921 11.1358 3.5905 10.972C3.91674 10.8744 3.91127 10.8744 5.6773 10.8597C7.44334 10.845 7.41053 10.8468 7.77322 10.7474C8.48218 10.5523 8.92506 10.1067 9.08544 9.42005C9.12554 9.247 9.15834 8.98558 9.15834 8.8291V8.72416L6.84919 8.72784C5.57707 8.72784 4.40335 8.73705 4.2375 8.74441Z" fill="#A4ABB6"/>
<path d="M11.9468 13.5458C11.9468 17.7193 11.9505 18.3968 11.9742 18.5791C12.0635 19.2731 12.335 19.8291 12.8216 20.3225C13.527 21.0386 14.5221 21.451 15.847 21.5762C16.1642 21.6056 16.957 21.6001 17.2777 21.5651C19.0729 21.3737 20.4016 20.6152 20.9811 19.4517C21.0777 19.2547 21.1707 18.9822 21.2272 18.7208L21.2691 18.5275V14.597C21.2691 10.9077 21.2673 10.6537 21.2363 10.4585C21.1725 10.0498 21.0668 9.72765 20.9228 9.50489C20.8244 9.35393 20.5619 9.09619 20.4216 9.01335C20.1154 8.83477 19.6288 8.72431 19.1331 8.72431H19.0182V13.2145C19.0182 18.1409 19.0255 17.8519 18.9089 18.1704C18.6136 18.9859 17.6896 19.4572 16.4685 19.4149C15.9655 19.3983 15.5773 19.3118 15.2146 19.135C14.9704 19.0172 14.8738 18.9528 14.7189 18.8055C14.4947 18.5883 14.3362 18.2937 14.2487 17.9292C14.225 17.8243 14.2195 17.3843 14.2049 14.2841C14.1958 11.9239 14.1831 10.685 14.1703 10.5377C14.1193 9.99275 13.948 9.58589 13.6418 9.27661C13.3265 8.95628 12.9437 8.79795 12.3569 8.74272C12.2475 8.73352 12.109 8.72431 12.0525 8.72431H11.9468V13.5458Z" fill="#A4ABB6"/>
<path d="M28.3132 8.74441C27.3472 8.81437 26.4761 9.12181 25.8127 9.62808C25.6085 9.78456 25.2695 10.1307 25.111 10.3442C24.6389 10.9849 24.3692 11.7157 24.2362 12.7191C24.2088 12.9271 24.2052 13.3413 24.1997 17.1963L24.1924 21.4453H25.3242H26.4542L26.4597 17.2332C26.4669 12.6141 26.4578 12.9897 26.5726 12.5626C26.7914 11.747 27.36 11.1782 28.1601 10.972C28.49 10.8873 28.6212 10.8763 29.4249 10.8597C30.225 10.845 30.3526 10.8339 30.6642 10.7511C31.3841 10.5596 31.7887 10.092 31.9017 9.32248C31.9109 9.25068 31.9254 9.08867 31.9327 8.95797L31.9455 8.72416L30.2341 8.726C29.2937 8.72784 28.428 8.73705 28.3132 8.74441Z" fill="#A4ABB6"/>
<path d="M37.3256 8.73723C36.9447 8.75748 36.3651 8.86057 35.9952 8.97287C33.7862 9.64667 32.2954 11.5392 31.9418 14.1202C31.8671 14.6725 31.838 15.3353 31.8671 15.8949C31.8999 16.5595 31.9601 17.0014 32.0949 17.5518C32.372 18.6914 32.844 19.5695 33.5694 20.2949C34.3549 21.081 35.2698 21.5081 36.469 21.6517C36.7661 21.6867 37.5425 21.6811 37.8268 21.6406C38.4118 21.5596 38.8857 21.4179 39.3377 21.1896C39.8972 20.9042 40.4203 20.455 40.7574 19.9653C40.8303 19.8623 40.834 19.8604 40.8504 19.9009C40.8595 19.9248 40.8814 20.0114 40.8978 20.0924C40.9925 20.5305 41.2094 20.8822 41.5193 21.0975C41.8127 21.3019 42.2483 21.4068 42.8989 21.4344L43.1304 21.4455V15.0849V8.72434L40.2836 8.72802C38.7162 8.72986 37.3857 8.73355 37.3256 8.73723ZM40.6845 10.8451C40.7137 10.8746 40.7155 16.3662 40.6864 16.6369C40.5715 17.7083 40.0886 18.5883 39.3395 19.0927C38.1931 19.8623 36.4253 19.7389 35.4575 18.8184C34.8907 18.2809 34.5225 17.4156 34.3877 16.3092C34.3421 15.9299 34.3421 14.8879 34.3877 14.505C34.5444 13.2292 34.9053 12.3529 35.5395 11.7159C36.0753 11.1765 36.7533 10.8875 37.5808 10.8433C37.7211 10.8341 38.472 10.8267 39.2484 10.8267C40.3273 10.8231 40.6681 10.8286 40.6845 10.8451Z" fill="#A4ABB6"/>
<path d="M49.7954 11.0569C49.768 11.0826 49.7844 11.2336 49.8264 11.3422C50.0469 11.9387 50.5207 12.467 51.0675 12.7266C51.2242 12.8021 51.4411 12.8757 51.5505 12.8923C51.596 12.8978 53.8396 13.0488 56.5351 13.2255C59.2324 13.4041 62.0574 13.59 62.8119 13.6398C63.5683 13.6913 64.1989 13.7281 64.2134 13.7226C64.228 13.7171 64.2353 13.6913 64.2317 13.6545C64.2262 13.6029 64.2171 13.5937 64.1606 13.5808C64.1241 13.5735 62.8648 13.3489 61.363 13.0801C53.1525 11.6128 49.9485 11.044 49.881 11.044C49.8409 11.044 49.8008 11.0495 49.7954 11.0569Z" fill="#A4ABB6"/>
<path d="M57.6468 14.3796C55.3413 14.3869 53.2946 14.3998 53.0996 14.409L52.7442 14.4219L52.7388 14.49C52.7205 14.7017 53.1379 15.2485 53.5079 15.4989C53.7721 15.6775 54.0309 15.7677 54.3298 15.7861C54.5066 15.7971 54.0911 15.8542 60.9311 14.8822C63.8052 14.4735 63.6721 14.4937 63.6922 14.4643C63.6995 14.4514 63.705 14.4238 63.7031 14.4035C63.6977 14.3667 63.6831 14.3667 62.7682 14.3648C62.2579 14.3648 59.9524 14.3704 57.6468 14.3796Z" fill="#A4ABB6"/>
<path d="M62.8137 15.2705C62.5877 15.3349 61.1953 15.6994 59.5149 16.1321C58.148 16.4837 56.9871 16.7875 55.8371 17.1004C55.5728 17.1704 55.3541 17.2293 55.3505 17.2293C55.3268 17.2293 55.2867 17.2956 55.2867 17.3342C55.2867 17.4023 55.5819 17.8773 55.7058 18.0099C55.8626 18.1774 55.9082 18.1958 56.1797 18.1958C56.3729 18.1958 56.4276 18.1884 56.5351 18.1516C56.9452 18.0099 62.3198 15.7197 62.9194 15.4307C63.0853 15.3515 63.0889 15.3478 63.0835 15.2907C63.078 15.2392 63.0707 15.2318 63.0233 15.2281C62.9942 15.2263 62.8994 15.2447 62.8137 15.2705Z" fill="#A4ABB6"/>
<path d="M61.62 16.8284C60.4827 17.5298 58.5472 18.7025 57.8838 19.0891C56.9816 19.6156 56.6718 19.8071 56.6572 19.8402C56.6444 19.8752 56.7174 20.5398 56.7465 20.6411C56.7556 20.6797 56.7939 20.7441 56.8303 20.7846C56.8923 20.8546 56.8978 20.8564 57.0126 20.8564C57.1602 20.8564 57.2732 20.8049 57.4865 20.6429C57.6851 20.4919 58.467 19.8384 60.6322 18.0158C62.01 16.856 62.3763 16.5394 62.3763 16.5062C62.3763 16.4565 62.3435 16.4197 62.3052 16.4215C62.2888 16.4215 61.9808 16.6056 61.62 16.8284Z" fill="#A4ABB6"/>
<path d="M60.1966 19.542C60.0745 19.6359 59.7355 19.9249 58.3667 21.105C57.7197 21.6628 57.1183 22.1801 57.0308 22.2556C56.834 22.4231 56.7921 22.5041 56.7009 22.8723C56.6663 23.0159 56.5916 23.2663 56.5351 23.432C56.4203 23.7707 56.4148 23.826 56.5005 23.8352C56.5497 23.8407 56.5752 23.8204 56.7283 23.6603C57.1019 23.2645 59.1085 21.0406 59.9505 20.0869C60.3278 19.658 60.3624 19.6138 60.3624 19.553C60.3624 19.4573 60.3114 19.4536 60.1966 19.542Z" fill="#A4ABB6"/>
<path d="M55.1955 21.8243C54.3298 22.1226 52.8135 22.4613 50.9217 22.778C49.4892 23.0191 48.7328 23.1057 47.2584 23.194C46.1266 23.2621 46.2104 23.2511 46.2104 23.3468C46.2104 23.3984 46.2287 23.4278 46.3253 23.5199C46.6114 23.7979 47.0233 23.9856 47.5336 24.0703C47.7742 24.1108 48.4704 24.1163 48.7984 24.0814C49.5493 23.9985 50.4023 23.8218 51.4593 23.5254C52.4162 23.2585 53.4368 22.8884 54.3699 22.4705C54.7089 22.3177 55.3432 22.0011 55.5382 21.8869C55.6275 21.8354 55.6348 21.8243 55.6293 21.7709C55.6257 21.7231 55.6147 21.712 55.5783 21.7102C55.5528 21.7084 55.3814 21.7599 55.1955 21.8243Z" fill="#A4ABB6"/>
<path d="M55.5874 22.5791C55.4325 22.6878 55.1099 22.8792 54.7946 23.0486C53.3147 23.8476 50.9436 24.619 48.782 25.0092C48.587 25.0442 48.4175 25.081 48.403 25.0921C48.3902 25.1031 48.3793 25.1363 48.3793 25.1639C48.3793 25.232 48.4667 25.3056 48.6636 25.4032C49.358 25.7512 50.6829 25.6425 51.9241 25.1363C53.3457 24.5545 54.667 23.7592 55.4124 23.0376C55.684 22.7743 55.7787 22.6546 55.7787 22.5755C55.7787 22.5184 55.7733 22.5129 55.7295 22.5147C55.7004 22.5147 55.6384 22.5442 55.5874 22.5791Z" fill="#A4ABB6"/>
<path d="M55.3669 23.9693C55.2976 24.0485 54.8857 24.3854 54.6907 24.5234C54.0893 24.9505 53.322 25.3445 52.5437 25.6262C52.2558 25.7311 52.2521 25.733 52.2467 25.79C52.2376 25.871 52.2631 25.8931 52.4326 25.9502C52.5693 25.9962 52.6039 25.9999 52.8991 25.9999C53.2564 26.0017 53.3912 25.9796 53.7193 25.871C53.9453 25.7955 54.3098 25.6225 54.4647 25.5157C54.7946 25.2893 55.0479 24.9984 55.2684 24.5915C55.3978 24.3559 55.5236 24.0595 55.5236 23.9951C55.5236 23.9343 55.5199 23.9306 55.4634 23.9306C55.4234 23.9306 55.3887 23.9454 55.3669 23.9693Z" fill="#A4ABB6"/>
</g>
<defs>
<clipPath id="clip0_547_16170">
<rect fill="white" height="26" transform="matrix(1 0 0 -1 0.246155 26)" width="63.9864"/>
</clipPath>
</defs>
</svg>