<?xml version="1.0" encoding="utf-8"?>
<svg xmlns="http://www.w3.org/2000/svg" fill="none" height="26" viewBox="0 0 46 26" width="46">
<g clip-path="url(#clip0_547_16243)">
<path d="M44.9257 12.9863C44.9257 16.3993 43.5699 19.6725 41.1566 22.0858C38.7432 24.4992 35.4701 25.855 32.0571 25.855C28.6441 25.855 25.3709 24.4992 22.9576 22.0858C20.5442 19.6725 19.1884 16.3993 19.1884 12.9863C19.1884 9.57334 20.5442 6.30015 22.9576 3.88681C25.3709 1.47348 28.6441 0.117676 32.0571 0.117676C35.4701 0.117676 38.7432 1.47348 41.1566 3.88681C43.5699 6.30015 44.9257 9.57334 44.9257 12.9863Z" fill="white"/>
<path d="M43.5631 10.2769C43.2028 10.2769 42.9113 10.5683 42.9113 10.9286C42.9113 11.289 43.2028 11.582 43.5631 11.582C43.9234 11.582 44.2165 11.289 44.2165 10.9286C44.2165 10.5683 43.9234 10.2769 43.5631 10.2769ZM43.5663 10.4069C43.8543 10.4069 44.088 10.6407 44.088 10.9286C44.088 11.2166 43.8543 11.4488 43.5663 11.4488C43.2783 11.4488 43.0462 11.2166 43.0462 10.9286C43.0462 10.6407 43.2783 10.4069 43.5663 10.4069Z" fill="#A4ABB6"/>
<path clip-rule="evenodd" d="M23.7641 10.2994C23.7496 10.2996 23.7343 10.3014 23.7191 10.3026C23.717 10.3026 23.7149 10.3027 23.7127 10.3026C23.7063 10.3025 23.6999 10.3027 23.6934 10.3026C23.6598 10.3024 23.6264 10.3027 23.5923 10.3042C23.4855 10.3092 23.3857 10.3232 23.2937 10.3444C23.2915 10.3449 23.2895 10.3455 23.2873 10.346C23.0467 10.3867 22.8377 10.4607 22.6756 10.5547C22.5204 10.6264 22.3854 10.71 22.2743 10.8003C22.2728 10.8015 22.271 10.8023 22.2695 10.8035C21.8205 11.1343 21.4807 11.6247 21.3175 12.2002C21.3166 12.2034 21.3152 12.2066 21.3143 12.2098C21.2314 12.4823 21.1859 12.775 21.1859 13.0815C21.1859 13.9212 21.5251 14.6663 22.0495 15.1348C22.1199 15.2068 22.2032 15.2782 22.2984 15.3451C22.4128 15.4254 22.5297 15.4881 22.6387 15.5329C22.6426 15.5345 22.6461 15.5362 22.65 15.5377C22.9188 15.6682 23.3191 15.7512 23.7657 15.7512C23.839 15.7512 23.9105 15.7478 23.9808 15.7432C23.9813 15.7432 23.9819 15.7432 23.9824 15.7432C24.0474 15.7469 24.1181 15.7463 24.1911 15.7384C24.2136 15.7359 24.2353 15.7322 24.2569 15.7288C25.2908 15.6625 26.1305 14.8985 26.299 13.9099C26.2992 13.9094 26.2989 13.9087 26.299 13.9083C26.3042 13.8919 26.3085 13.874 26.3134 13.8569H24.9135C24.8073 14.1779 24.499 14.4251 24.114 14.491C24.1129 14.4912 24.112 14.4924 24.1108 14.4926C24.1068 14.4933 24.1021 14.4936 24.098 14.4942C24.03 14.5077 23.9413 14.5167 23.8427 14.5167C23.701 14.5167 23.577 14.5002 23.5104 14.475C23.2068 14.3938 22.9668 14.162 22.8763 13.8681C22.8747 13.8637 22.873 13.8584 22.8715 13.8537C22.8681 13.8418 22.8648 13.8304 22.8619 13.8184C22.8566 13.7982 22.8518 13.7764 22.8474 13.7526C22.8333 13.6764 22.8236 13.5829 22.8201 13.4796V13.4748V13.4716H22.8394H22.8843H22.9148H22.9389H26.384C26.3913 13.3941 26.3953 13.3137 26.3953 13.2308C26.3953 13.1521 26.3906 13.0763 26.384 13.0028C26.3838 13.0008 26.3843 12.9985 26.384 12.9964C26.3776 12.8177 26.3575 12.655 26.3263 12.5212C26.2546 12.0194 26.0919 11.594 25.8735 11.3204C25.8723 11.3189 25.8715 11.3171 25.8703 11.3156C25.4428 10.7045 24.7186 10.3026 23.8973 10.3026C23.8801 10.3026 23.8631 10.3036 23.846 10.3042C23.8204 10.3005 23.7931 10.299 23.7641 10.2994ZM23.8299 11.558C23.9591 11.558 24.0711 11.5756 24.1317 11.6014C24.4648 11.7012 24.7154 12.0221 24.7434 12.4105H23.8476H23.8411H22.8201C22.8538 11.9979 23.1703 11.6628 23.5827 11.5837C23.5837 11.5835 23.5848 11.5824 23.5859 11.5821C23.5896 11.5814 23.5934 11.5812 23.5971 11.5805C23.6591 11.5667 23.7401 11.558 23.8299 11.558Z" fill="#A4ABB6" fill-rule="evenodd"/>
<path d="M25.9394 10.4199L26.8079 11.6657V11.6609L27.6378 12.8922L26.6409 14.3724V14.374L26.299 14.8813L25.7933 15.6326H27.6202L28.5866 14.1861L29.5274 15.594L29.5434 15.6181H30.5082H30.7474H31.3976L30.5082 14.3354V14.3386L29.5081 12.8537L30.3541 11.6528V11.6657L30.7282 11.1215L31.2114 10.4199H29.3716L28.5979 11.5886L27.8064 10.4199L25.9394 10.4199ZM27.7823 10.428L27.7037 10.4874L27.7021 10.4841L27.7823 10.428Z" fill="#A4ABB6"/>
<path d="M31.5116 10.4199L31.8054 15.6165H31.8198H31.8471H33.0736H33.3112H33.3257L33.6195 10.4199H33.3112H33.0736H31.8471H31.8198H31.5116Z" fill="#A4ABB6"/>
<path d="M33.5446 16.8515C33.5446 17.1119 33.4412 17.3616 33.257 17.5457C33.0729 17.7299 32.8232 17.8333 32.5628 17.8333C32.3024 17.8333 32.0526 17.7299 31.8685 17.5457C31.6844 17.3616 31.5809 17.1119 31.5809 16.8515C31.5809 16.5911 31.6844 16.3413 31.8685 16.1572C32.0526 15.9731 32.3024 15.8696 32.5628 15.8696C32.8232 15.8696 33.0729 15.9731 33.257 16.1572C33.4412 16.3413 33.5446 16.5911 33.5446 16.8515Z" fill="#A4ABB6"/>
<path d="M34.7529 8.93799V10.4149H33.9261V11.5772H34.7529V14.0382V14.0431V14.4316V14.4396V14.4653V14.4669C34.7485 14.5007 34.7464 14.542 34.748 14.5873C34.7503 14.6531 34.7603 14.7092 34.7721 14.7414C34.7724 14.7422 34.7734 14.7422 34.7737 14.743C34.8263 15.0826 35.0772 15.3702 35.4271 15.528C35.4447 15.536 35.462 15.5448 35.4801 15.5521C35.495 15.5581 35.5098 15.5643 35.525 15.5698C35.5315 15.572 35.5376 15.574 35.5443 15.5762C35.6612 15.6166 35.7867 15.6431 35.9184 15.6532C35.9194 15.6535 35.9205 15.653 35.9216 15.6532C36.0555 15.6699 36.2047 15.6789 36.3614 15.6789C36.4815 15.6789 36.596 15.6743 36.7034 15.6645C36.781 15.6647 36.8631 15.6615 36.949 15.6549C37.1036 15.643 37.2419 15.6212 37.3519 15.5939V15.2872C37.3507 15.2863 37.35 15.2849 37.3487 15.284V14.9437V14.2758H37.2942C37.2802 14.2846 37.2654 14.2914 37.2492 14.2967V14.2999C37.0581 14.3635 36.7935 14.3733 36.4995 14.3144C36.4985 14.3142 36.4973 14.3146 36.4963 14.3144C36.4264 14.3144 36.3695 14.2555 36.3695 14.1827C36.3695 14.1719 36.3703 14.1623 36.3727 14.1522V14.0431V13.5968V11.5772H37.3552V10.4149H36.3727V8.93799L34.7529 8.93799Z" fill="#A4ABB6"/>
<path d="M40.2352 10.269C39.482 10.269 38.8064 10.5382 38.344 10.9642C38.3251 10.9816 38.3061 10.9992 38.2879 11.0171C38.2401 11.0634 38.1939 11.1118 38.1498 11.1648C38.1484 11.1665 38.1464 11.168 38.145 11.1697C38.1388 11.177 38.1334 11.1847 38.1273 11.1921C38.1145 11.2082 38.1013 11.2253 38.0888 11.2419C38.0848 11.2471 38.0815 11.2527 38.0776 11.258C38.0621 11.2788 38.0475 11.2988 38.0326 11.3206C38.0272 11.3284 38.0219 11.3367 38.0166 11.3446C37.9975 11.3733 37.9785 11.403 37.9604 11.4329C37.7039 11.8574 37.5478 12.4137 37.5478 13.0239C37.5478 13.6339 37.7041 14.1904 37.9604 14.6148C37.9784 14.6446 37.9976 14.6746 38.0166 14.7031C38.0365 14.7329 38.0566 14.7614 38.0776 14.7898C38.097 14.8161 38.1167 14.8419 38.137 14.8668C38.1396 14.8701 38.1423 14.8732 38.145 14.8765C38.1467 14.8785 38.1481 14.8808 38.1498 14.8829C38.211 14.9565 38.2759 15.0248 38.3441 15.0851C38.3461 15.0869 38.3484 15.0882 38.3505 15.09C38.8127 15.5124 39.4857 15.7787 40.2352 15.7787C40.9847 15.7787 41.6577 15.5124 42.1199 15.09C42.1218 15.0882 42.1244 15.087 42.1263 15.0852C42.1944 15.0248 42.2594 14.9565 42.3206 14.8829C42.3223 14.8808 42.3237 14.8785 42.3254 14.8765C42.3263 14.8753 42.3276 14.8744 42.3286 14.8733C42.3303 14.8712 42.3317 14.8689 42.3334 14.8668C42.3537 14.8419 42.3733 14.8161 42.3928 14.7898C42.4137 14.7614 42.4339 14.7329 42.4538 14.7031C42.4728 14.6746 42.492 14.6446 42.51 14.6148C42.7663 14.1904 42.9226 13.6339 42.9226 13.0239C42.9226 12.4137 42.7664 11.8574 42.51 11.4329C42.4919 11.403 42.4729 11.3733 42.4538 11.3446C42.4192 11.2927 42.3829 11.2412 42.343 11.1921C42.3384 11.1863 42.3333 11.1802 42.3286 11.1745C42.3259 11.1713 42.3232 11.168 42.3206 11.1649C42.2765 11.1118 42.2302 11.0634 42.1825 11.0172C42.1739 11.0087 42.1655 10.9998 42.1568 10.9915C42.1469 10.9822 42.1364 10.9731 42.1263 10.9642C41.6639 10.5382 40.9883 10.269 40.2352 10.269ZM40.2288 11.5549C40.5645 11.5549 40.8621 11.7184 41.0523 11.9707C41.0657 11.9869 41.0782 12.0049 41.0908 12.0237C41.109 12.0507 41.1273 12.0783 41.1438 12.1104C41.1525 12.1266 41.1585 12.1435 41.1663 12.1602C41.1705 12.1694 41.1751 12.1779 41.1791 12.1875C41.191 12.2147 41.2016 12.2425 41.2112 12.2709C41.2197 12.296 41.2287 12.3221 41.2353 12.348C41.2357 12.3496 41.2365 12.3512 41.2369 12.3528C41.2927 12.5435 41.3252 12.7746 41.3252 13.0239C41.3252 13.2868 41.2887 13.529 41.2273 13.7254C41.2256 13.7311 41.2242 13.7374 41.2225 13.7431C41.2211 13.7474 41.2191 13.7517 41.2177 13.7559C41.2085 13.7846 41.1986 13.8134 41.1872 13.841C41.1862 13.8432 41.1848 13.8452 41.1839 13.8474C41.1821 13.8517 41.181 13.856 41.1791 13.8603C41.1387 13.9558 41.0918 14.0345 41.0395 14.093C41.0369 14.0963 41.0341 14.0994 41.0314 14.1027C41.0279 14.1065 41.0238 14.1103 41.0202 14.1139C40.8294 14.343 40.5462 14.4896 40.2288 14.4896C39.8918 14.4896 39.5937 14.3245 39.4036 14.0706C39.3916 14.0557 39.3796 14.0394 39.3683 14.0224C39.3679 14.0218 39.3671 14.0214 39.3667 14.0208C39.3517 13.9982 39.3372 13.9746 39.3233 13.9486C39.3213 13.9448 39.3189 13.9411 39.3169 13.9373C39.3161 13.9357 39.3145 13.9341 39.3137 13.9325C39.2677 13.8459 39.2337 13.7521 39.2126 13.6532C39.2114 13.649 39.2104 13.6446 39.2094 13.6403C39.1627 13.4606 39.1355 13.2501 39.1355 13.0239C39.1355 12.7976 39.1627 12.5871 39.2094 12.4074C39.2096 12.4063 39.2091 12.4052 39.2094 12.4042C39.2356 12.2733 39.2868 12.1515 39.3554 12.043C39.3684 12.0225 39.3829 12.0031 39.3972 11.9836C39.5869 11.7243 39.8877 11.5549 40.2288 11.5549Z" fill="#A4ABB6"/>
<path d="M24.061 8.93799L23.2327 9.9895H24.2617L25.6375 8.93799H24.061Z" fill="#A4ABB6"/>
<path d="M43.3961 10.5781V10.5797H43.2982V11.2732H43.4555V10.9714H43.5454L43.6931 11.2732H43.8665L43.7156 10.965C43.7272 10.9617 43.739 10.9567 43.7509 10.949C43.7782 10.9313 43.7989 10.9046 43.8119 10.8767C43.8121 10.876 43.8132 10.8758 43.8135 10.8751C43.8353 10.845 43.8452 10.7968 43.8392 10.7451C43.832 10.683 43.803 10.6335 43.767 10.615C43.7605 10.6096 43.7536 10.6057 43.7461 10.6022C43.7439 10.6009 43.7419 10.6002 43.7397 10.599C43.7371 10.598 43.7343 10.5966 43.7317 10.5958C43.7133 10.5865 43.6955 10.5812 43.6803 10.5797C43.6802 10.5797 43.6804 10.5781 43.6803 10.5781H43.6755L43.3961 10.5781ZM43.4555 10.7226H43.6386C43.639 10.7232 43.6397 10.7236 43.6402 10.7242C43.661 10.7299 43.6771 10.7584 43.6771 10.7932C43.6771 10.8273 43.6621 10.8557 43.6418 10.8623H43.6273H43.4555V10.7226Z" fill="#A4ABB6"/>
<path d="M12.6068 11.3813C12.0658 11.3813 11.5843 11.6024 11.2711 11.9464V11.5146H10.706V17.2747H11.2711V15.2872C11.5846 15.6312 12.0659 15.8507 12.6068 15.8507C13.2654 15.8507 13.8361 15.5238 14.1222 15.0448C14.1233 15.0431 14.126 15.0417 14.127 15.04C14.1819 14.9567 14.2295 14.8623 14.2667 14.7606C14.2696 14.753 14.2719 14.7445 14.2747 14.7366C14.2874 14.7001 14.2983 14.6626 14.3084 14.6242C14.3831 14.3679 14.4305 14.0274 14.4305 13.6513C14.4305 13.3267 14.3947 13.0284 14.3373 12.7876C14.3207 12.69 14.297 12.5972 14.2651 12.5099C14.2649 12.5094 14.2653 12.5088 14.2651 12.5083C14.2637 12.5034 14.2618 12.4988 14.2603 12.4939C14.0646 11.8532 13.3981 11.3813 12.6068 11.3813ZM12.573 11.8902C13.1706 11.8902 13.6709 12.2857 13.8028 12.8182C13.8832 13.0503 13.9328 13.3382 13.9328 13.6513C13.9328 14.0141 13.8675 14.3433 13.7626 14.5905C13.7484 14.6275 13.7306 14.6628 13.7129 14.698C13.7088 14.7057 13.7057 14.7147 13.7016 14.7221C13.4928 15.1144 13.0652 15.3835 12.573 15.3835C12.2255 15.3835 11.9106 15.2489 11.6821 15.032C11.6805 15.0307 11.6788 15.03 11.6772 15.0288C11.595 14.9606 11.522 14.863 11.4573 14.7462C11.4463 14.7264 11.4356 14.7062 11.4252 14.6852C11.4117 14.6589 11.3974 14.6305 11.3851 14.6017C11.3833 14.5976 11.382 14.5931 11.3802 14.5889C11.371 14.567 11.3631 14.5446 11.3546 14.5215C11.3422 14.4882 11.3302 14.4539 11.3192 14.4187C11.3155 14.4064 11.3116 14.3943 11.308 14.3818C11.3037 14.3669 11.2992 14.352 11.2952 14.3368C11.2906 14.3195 11.2866 14.3017 11.2823 14.2839C11.2783 14.2673 11.2748 14.251 11.2711 14.2341C11.2307 14.0509 11.2069 13.8491 11.2069 13.6369C11.2069 13.0248 11.3938 12.4994 11.6612 12.2627C11.6666 12.2573 11.6717 12.2519 11.6772 12.2466C11.6793 12.2449 11.6816 12.2435 11.6837 12.2418C11.9119 12.025 12.2255 11.8902 12.573 11.8902Z" fill="#A4ABB6"/>
<path d="M6.98151 11.5147V14.6307C6.98203 14.6305 6.98265 14.6309 6.98311 14.6307C6.98331 14.7534 7.00264 14.8866 7.04537 15.0208C7.08309 15.1393 7.13524 15.2447 7.19543 15.3371C7.19564 15.3375 7.19512 15.3383 7.19543 15.3387C7.22767 15.3793 7.26399 15.4148 7.30239 15.443C7.47132 15.6198 7.72368 15.7492 8.016 15.801C8.03308 15.804 8.04974 15.8082 8.06709 15.8106C8.19433 15.8354 8.3347 15.8492 8.48376 15.8492C8.55827 15.8492 8.631 15.8461 8.70087 15.8395C8.70462 15.8395 8.7083 15.8396 8.71205 15.8395C9.21884 15.8355 9.65488 15.5228 9.86148 15.0722V15.8492H10.4234V11.5147H9.86148V14.0351C9.85185 14.2057 9.81864 14.3829 9.7625 14.5633C9.71507 14.6799 9.64826 14.7964 9.57093 14.8875C9.54018 14.9238 9.51038 14.9544 9.48153 14.9774C9.48033 14.9788 9.47794 14.9793 9.47674 14.9807C9.31223 15.1604 9.10012 15.2891 8.86211 15.3435C8.84776 15.3472 8.83117 15.3499 8.81582 15.3531C8.81105 15.354 8.80624 15.3555 8.80145 15.3563C8.7325 15.3696 8.65551 15.3772 8.57316 15.3772C8.53485 15.3772 8.49891 15.3754 8.463 15.3724V15.374C8.04898 15.3587 7.70486 15.0942 7.60412 14.7382C7.58155 14.6872 7.56328 14.6303 7.54984 14.5697C7.54987 14.5654 7.55005 14.5612 7.54984 14.5568C7.54912 14.5436 7.54633 14.5305 7.54345 14.5183V11.5146L6.98151 11.5147Z" fill="#A4ABB6"/>
<path d="M6.78505 11.5083C6.13373 11.5083 5.57645 11.812 5.35306 12.2404V11.598H4.78796V15.8492H5.35306V13.2418C5.35596 13.229 5.36012 13.2177 5.36268 13.204C5.37183 13.1551 5.37517 13.1114 5.37713 13.0702C5.38982 13.037 5.39925 13.0027 5.40603 12.9679C5.40749 12.9666 5.40936 12.9659 5.41085 12.9647C5.51626 12.4538 6.1309 12.0566 6.88939 12.0247V11.5115C6.85489 11.5097 6.82014 11.5083 6.78505 11.5083Z" fill="#A4ABB6"/>
<path d="M2.58441 11.4121C1.96877 11.4121 1.43105 11.7389 1.14278 12.2244C1.1416 12.2264 1.14075 12.2289 1.13958 12.2309C0.991721 12.4216 0.87026 12.7186 0.813687 13.0656C0.778504 13.2815 0.772859 13.4871 0.792817 13.6693C0.803051 14.1137 0.913261 14.506 1.08018 14.7593C1.34781 15.3084 1.92069 15.6888 2.58441 15.6888C3.13422 15.6888 3.62163 15.4274 3.9249 15.0258V16.0324H3.9265C3.92481 16.068 3.92421 16.1045 3.9249 16.1431C3.9252 16.1593 3.92582 16.1741 3.9265 16.1897C3.9264 16.1907 3.9266 16.1919 3.9265 16.1929C3.88162 16.5718 3.35441 16.8704 2.71284 16.8704C2.22021 16.8704 1.79752 16.6935 1.60674 16.4401C1.60234 16.4351 1.59815 16.4294 1.59389 16.4241C1.51559 16.3259 1.46398 16.1825 1.45904 16.0276H0.94693C0.958879 16.7713 1.74482 17.3712 2.71284 17.3712C3.6788 17.3712 4.46515 16.774 4.48035 16.0324C4.48038 16.0308 4.48033 16.0291 4.48035 16.0275V11.6015H3.92489V12.0735C3.62162 11.6719 3.13422 11.4121 2.58441 11.4121ZM2.65344 11.8841C3.18556 11.8841 3.64094 12.1945 3.83981 12.6386C3.84193 12.6427 3.84414 12.6473 3.84623 12.6515C3.84833 12.6563 3.85061 12.661 3.85265 12.6659C3.92437 12.8136 3.97719 13.0088 4.00195 13.231C4.02214 13.3564 4.03406 13.4919 4.03406 13.6339C4.03406 13.9375 3.98256 14.2133 3.89921 14.4174C3.8905 14.4387 3.8813 14.4587 3.87191 14.4784C3.84118 14.5429 3.80782 14.5989 3.77078 14.6437C3.77036 14.6443 3.76955 14.6447 3.76917 14.6453C3.54373 15.014 3.12806 15.2618 2.65344 15.2618C2.13606 15.2618 1.68994 14.9689 1.48312 14.5442C1.35873 14.3485 1.27443 13.9978 1.27443 13.597C1.27443 13.2832 1.32745 13.0013 1.40928 12.7992C1.5614 12.2716 2.05972 11.8841 2.65344 11.8841Z" fill="#A4ABB6"/>
<path d="M16.7165 11.3491C15.7276 11.3491 14.9106 12.0881 14.7853 13.046C14.7487 13.2271 14.7291 13.4278 14.7291 13.64C14.7291 13.9607 14.7758 14.2556 14.8543 14.494C14.8629 14.5202 14.8722 14.5463 14.8816 14.5711C14.8832 14.5756 14.8831 14.581 14.8848 14.5855C14.8934 14.6078 14.9028 14.6304 14.9121 14.6514C15.2023 15.3655 15.9009 15.8682 16.7165 15.8682C17.4631 15.8682 18.1094 15.4455 18.4359 14.8264C18.4363 14.8255 18.437 14.8255 18.4375 14.8247C18.6047 14.5679 18.7168 14.1332 18.7168 13.64C18.7168 13.344 18.6754 13.0686 18.6076 12.8405C18.6075 12.8399 18.6077 12.8395 18.6076 12.8389C18.4008 11.9831 17.6332 11.3491 16.7165 11.3491ZM16.7133 11.8018C17.3893 11.8018 17.9558 12.3136 18.1084 13.0043C18.1085 13.0048 18.1083 13.0053 18.1084 13.0059C18.1584 13.1899 18.1886 13.4124 18.1886 13.6512C18.1886 14.0493 18.1065 14.3992 17.9832 14.6064C17.9828 14.607 17.9819 14.6073 17.9816 14.608C17.7408 15.1077 17.2639 15.4492 16.7133 15.4492C16.1118 15.4492 15.5965 15.0431 15.3825 14.4667C15.3756 14.4498 15.3696 14.4317 15.3632 14.4138C15.362 14.4101 15.3612 14.4062 15.36 14.4025C15.3531 14.3826 15.3471 14.361 15.3407 14.3399C15.2828 14.1475 15.2476 13.9101 15.2476 13.6512C15.2476 13.48 15.2624 13.3173 15.2894 13.1712C15.3818 12.3981 15.9841 11.8018 16.7133 11.8018Z" fill="#A4ABB6"/>
</g>
<defs>
<clipPath id="clip0_547_16243">
<rect fill="white" height="25.9999" transform="translate(0.729431)" width="44.277"/>
</clipPath>
</defs>
</svg>