<?xml version="1.0" encoding="utf-8"?>
<svg xmlns="http://www.w3.org/2000/svg" fill="none" height="26" viewBox="0 0 50 26" width="50">
<g clip-path="url(#clip0_547_16244)">
<path d="M25.4877 9.16585V11.5186H24.7971V9.16585C24.4669 9.16585 24.0359 9.1642 23.8731 9.1576L21.5815 9.16419C21.3879 9.17519 21.1883 9.12627 21.0083 9.0136C20.6605 8.79486 20.473 8.38982 20.4881 7.98312C20.4886 7.92322 20.4951 7.87046 20.5017 7.82869C20.5828 7.33078 20.7437 6.83999 20.9881 6.37892C21.2331 5.91507 21.5447 5.51662 21.902 5.19017C22.1415 4.99672 22.4772 4.90054 22.7857 4.95935C22.8729 4.63784 23.0776 4.37239 23.3437 4.22071C23.3947 4.18884 23.4415 4.1674 23.4809 4.15202C24.0001 3.94702 24.5601 3.83601 25.1419 3.83601C25.7271 3.83601 26.2892 3.94813 26.8115 4.15532C27.1119 4.29766 27.3796 4.59498 27.492 4.94947C27.7864 4.87583 28.0913 4.94783 28.3318 5.14622C28.6882 5.47323 29.0516 5.91453 29.2966 6.37838C29.5406 6.83948 29.7014 7.32971 29.7831 7.82815C29.7901 7.86992 29.7957 7.92268 29.7957 7.98259C29.8113 8.38927 29.6243 8.79432 29.276 9.01306C29.096 9.12572 28.8969 9.17463 28.7028 9.16365L26.4117 9.15706C26.2483 9.1642 25.8184 9.16585 25.4877 9.16585ZM27.9391 5.76613C27.9351 5.76283 27.9311 5.75955 27.928 5.75625C27.8186 5.66612 27.6659 5.65018 27.5399 5.72987C27.4738 5.77163 27.4249 5.83319 27.3952 5.90409L26.2343 8.10901C26.1985 8.1667 26.1949 8.24475 26.2292 8.3096C26.2635 8.375 26.3295 8.41017 26.3946 8.40358L28.726 8.41072C28.7945 8.41732 28.8666 8.40083 28.9307 8.36016C29.0526 8.28377 29.1157 8.14033 29.1051 7.99689C29.1061 7.98699 29.1061 7.9749 29.1031 7.96006C29.035 7.54679 28.9019 7.139 28.6983 6.75483C28.4936 6.36903 28.2355 6.03763 27.9391 5.76613ZM22.3573 5.75679C22.3538 5.75954 22.3503 5.76283 22.3468 5.76668C22.0503 6.03817 21.7917 6.36957 21.5871 6.75537C21.3834 7.13952 21.2503 7.54731 21.1828 7.9606C21.1798 7.97544 21.1792 7.98698 21.1803 7.99743C21.1692 8.14087 21.2332 8.2843 21.3547 8.3607C21.4192 8.40137 21.4903 8.41785 21.5599 8.41126L23.8908 8.40412C23.9558 8.41071 24.0218 8.37554 24.0566 8.31014C24.0909 8.24529 24.0858 8.16724 24.0506 8.10954L22.8901 5.90462C22.8609 5.83373 22.812 5.77218 22.7455 5.73041C22.6194 5.65127 22.4667 5.66666 22.3573 5.75679ZM26.5922 4.86976C26.5871 4.86756 26.5811 4.86482 26.5755 4.86262C26.1284 4.68565 25.6455 4.58892 25.1424 4.58892C24.6418 4.58892 24.1619 4.68456 23.7163 4.86042C23.7007 4.86702 23.6886 4.87306 23.679 4.88076C23.5323 4.95551 23.4315 5.11763 23.4315 5.30614C23.4315 5.40562 23.4597 5.4985 23.5081 5.57489L24.9479 8.27715C24.9821 8.35684 25.0563 8.41234 25.1425 8.41234C25.2266 8.41234 25.2997 8.35958 25.3345 8.28209L26.7752 5.57927C26.8261 5.50123 26.8558 5.4067 26.8558 5.30393C26.8558 5.10937 26.748 4.94121 26.5922 4.86976ZM25.1424 0C29.032 0 32.1856 3.4377 32.1856 7.67817C32.1856 11.9194 29.032 15.3563 25.1424 15.3563C21.2523 15.3558 18.0998 11.9192 18.0998 7.67817C18.0998 3.43756 21.2524 0 25.1424 0ZM25.1424 0.731491C21.6228 0.731491 18.7702 3.84165 18.7702 7.67819C18.7702 11.5147 21.6229 14.6255 25.1424 14.6255C28.662 14.6255 31.5141 11.5153 31.5141 7.67819C31.5136 3.84151 28.6614 0.731491 25.1424 0.731491ZM37.8042 19.2048L37.2411 19.2049V21.5021H37.8042C38.4434 21.5021 38.96 20.9382 38.96 20.2424C38.96 19.5466 38.3753 19.2048 37.8042 19.2048ZM41.5158 24.0165V24.0797C41.5158 24.0588 41.5168 24.0379 41.5158 24.0165ZM41.5158 24.0802V25.9994H38.958V24.1419C38.9591 24.1215 38.9601 24.1012 38.9601 24.0803C38.9601 23.3845 38.4424 22.8207 37.8042 22.8207H37.2411V25.9994H34.5967V18.3234H39.7556C40.7275 18.3234 41.5159 19.1824 41.5159 20.242C41.5159 21.3016 40.728 22.1606 39.7556 22.1606C40.7088 22.1606 41.4856 22.9861 41.5159 24.0166C41.5169 24.038 41.5159 24.0589 41.5159 24.0803L41.5158 24.0802ZM49.4078 22.7942H45.0929V24.7398H49.4078V25.9999H42.4917V18.3212H49.4078V19.5814H45.0929V21.534H49.4078V22.7942ZM29.3735 21.534H33.6855V22.7942H29.3735V25.9999H26.7729V18.3212H33.6855V19.5813H29.3735V21.534ZM22.1593 19.2034L21.5952 19.2034V21.5012H22.1593C22.8126 21.5012 23.3152 20.9373 23.3152 20.2416C23.3152 19.5452 22.7456 19.2034 22.1593 19.2034ZM23.8182 18.3241C24.952 18.3241 25.8715 19.326 25.8715 20.562C25.8715 21.7981 24.952 22.8 23.8182 22.8H21.5513V25.9986H18.9512V18.3242L23.8182 18.3241ZM13.802 19.4713L12.7459 23.4794H14.8581L13.802 19.4713ZM9.48198 25.9997L11.5044 18.321H16.0996L18.1226 25.9997H15.5219L15.1902 24.7395H12.4147L12.0825 25.9997H9.48198ZM0.00640869 25.9999V18.3213H2.60706L4.32644 22.1601L6.04582 18.3213L8.64647 18.3218V26H6.04582V22.1601L4.32644 26L2.60706 22.1601V26L0.00640869 25.9999Z" fill="#A4ABB6"/>
</g>
<defs>
<clipPath id="clip0_547_16244">
<rect fill="white" height="26" transform="translate(0.00640869)" width="49.4014"/>
</clipPath>
</defs>
</svg>