<?xml version="1.0" encoding="utf-8"?>
<svg xmlns="http://www.w3.org/2000/svg" fill="none" height="26" viewBox="0 0 61 26" width="61">
<g clip-path="url(#clip0_547_16240)">
<path clip-rule="evenodd" d="M47.338 10.0586C47.2536 10.5275 47.1202 11.069 46.9411 11.6658C46.7613 12.2625 46.5307 12.8921 46.2588 13.5303C45.9632 14.1737 45.6567 14.7757 45.3493 15.318C45.0452 15.8552 44.7412 16.3172 44.4499 16.6912C44.1653 17.0556 43.901 17.3251 43.6662 17.4926C43.4889 17.6187 43.39 17.6325 43.3563 17.6325C43.3404 17.6325 43.3275 17.6299 43.314 17.6237C43.2843 17.61 43.1856 17.5425 43.1426 17.2221C43.1021 16.9285 43.1241 16.5425 43.2059 16.0752C43.2904 15.5942 43.423 15.0475 43.6028 14.4542C43.7802 13.8609 44.0107 13.2313 44.2869 12.5845C44.5605 11.9428 44.8595 11.3443 45.177 10.8046C45.4928 10.2657 45.8002 9.80881 46.0916 9.44609C46.3745 9.092 46.6388 8.82687 46.8769 8.65674C47.0551 8.53065 47.1531 8.51684 47.1869 8.51684C47.2039 8.51684 47.2166 8.51943 47.2282 8.52565C47.2579 8.53871 47.3566 8.60682 47.4005 8.92723C47.4402 9.22087 47.419 9.60085 47.338 10.0586ZM35.483 10.0586C35.3986 10.5275 35.2651 11.069 35.0861 11.6658C34.9054 12.266 34.6748 12.8947 34.4038 13.5303C34.1073 14.1754 33.8008 14.7774 33.4942 15.318C33.1894 15.8561 32.8862 16.3181 32.5948 16.6912C32.3103 17.0556 32.0468 17.3251 31.8103 17.4926C31.633 17.6187 31.535 17.6325 31.5012 17.6325C31.4853 17.6325 31.4725 17.6299 31.459 17.624C31.4293 17.6103 31.3306 17.5428 31.2876 17.2224C31.247 16.9297 31.2681 16.5445 31.3509 16.0755C31.4345 15.5954 31.568 15.0504 31.7478 14.4545C31.9252 13.8604 32.1557 13.2316 32.4318 12.5848C32.7063 11.9414 33.0061 11.3429 33.3211 10.8049C33.6386 10.2651 33.946 9.80825 34.2365 9.4464C34.5203 9.09232 34.7855 8.82632 35.0219 8.65705C35.1992 8.53096 35.2981 8.51715 35.3318 8.51715C35.3489 8.51715 35.3615 8.51974 35.3732 8.52565C35.4029 8.53871 35.5024 8.60682 35.5455 8.92723C35.5852 9.22087 35.564 9.60085 35.483 10.0586ZM22.6383 9.93767C22.5859 10.4144 22.4846 10.9585 22.3368 11.5561C22.1881 12.152 21.9855 12.779 21.733 13.4215C21.4813 14.0606 21.2136 14.6617 20.9358 15.2075C20.6638 15.7412 20.3894 16.1963 20.1183 16.5608C19.8548 16.9149 19.6074 17.1791 19.3819 17.3458C19.2155 17.4693 19.1226 17.4831 19.0914 17.4831C19.077 17.4831 19.0643 17.4805 19.0508 17.4743C19.0205 17.4606 18.9157 17.3905 18.8617 17.065C18.811 16.767 18.8068 16.3827 18.8473 15.9215C18.8895 15.4535 18.985 14.9154 19.1319 14.323C19.2788 13.7297 19.4824 13.1018 19.7357 12.4576C19.9907 11.8098 20.2593 11.2096 20.5337 10.6707C20.804 10.1379 21.0793 9.67756 21.3521 9.30189C21.6139 8.93917 21.8621 8.67145 22.0868 8.50477C22.2531 8.38126 22.346 8.36745 22.3781 8.36745C22.3925 8.36745 22.4052 8.37003 22.417 8.37625C22.449 8.38996 22.558 8.46262 22.6247 8.79251C22.6838 9.08615 22.6887 9.47045 22.6383 9.93767ZM48.6116 5.97711C49.2323 5.97711 49.766 6.17142 50.1984 6.55574C50.6155 6.92623 50.9136 7.45563 51.0834 8.12839C51.2481 8.78042 51.2819 9.56891 51.1847 10.4731C51.0876 11.3661 50.8326 12.3852 50.4247 13.5018C50.0404 14.5572 49.5996 15.4856 49.1166 16.2602C48.8826 16.6368 48.642 16.9891 48.3979 17.3147C48.3666 17.3562 48.4133 17.4106 48.4578 17.3855C48.5997 17.3069 48.7408 17.2215 48.8801 17.1282C49.1976 16.9183 49.5025 16.692 49.7921 16.4528C50.6003 15.7835 51.1872 14.8784 51.4727 13.8611C51.6433 13.2488 51.8324 12.6417 52.0385 12.0432C52.3763 11.0578 52.7369 10.138 53.111 9.30896C53.4826 8.48247 53.7917 7.86412 54.0298 7.46945C54.3 7.02036 54.6784 6.74055 55.1572 6.63692C55.6048 6.5402 56.0329 6.54709 56.4265 6.65584C56.8293 6.76813 57.1586 6.97194 57.4044 7.26383C57.6721 7.5825 57.7304 7.94523 57.5716 8.31313C57.5243 8.44007 57.4002 8.73026 57.2026 9.17675C57.0041 9.62583 56.7812 10.15 56.5219 10.7822C56.2728 11.3893 56.0169 12.0466 55.7619 12.734C55.5127 13.4094 55.3177 14.0398 55.1825 14.6081C55.0508 15.1608 54.9993 15.6202 55.0288 15.9734C55.0576 16.3111 55.1834 16.3111 55.2518 16.3111C55.3481 16.3111 55.5187 16.2645 55.7838 16.0434C56.0389 15.8275 56.3083 15.5675 56.5861 15.267C56.8639 14.9656 57.1308 14.6409 57.3774 14.3023C57.6029 13.994 57.7963 13.7211 57.9533 13.4905C58.0901 13.2893 58.308 13.1744 58.5504 13.1744C58.8063 13.1744 59.0546 13.3057 59.1838 13.5087C59.3096 13.7073 59.3062 13.9439 59.1728 14.1564C59.0055 14.4232 58.7134 14.8706 58.2793 15.5261C57.8494 16.1738 57.3351 16.8414 56.7508 17.5115C56.1562 18.1912 55.5068 18.7949 54.8186 19.3053C54.0948 19.8433 53.3635 20.1154 52.6465 20.1154C51.998 20.1154 51.5141 19.8856 51.2075 19.4314C50.9289 19.0168 50.787 18.4607 50.787 17.7784V17.6696C50.7887 17.5884 50.6958 17.5426 50.6341 17.5936C50.4982 17.705 50.358 17.8155 50.2153 17.9244C49.3723 18.566 48.3995 19.1101 47.3219 19.5428C46.36 19.9297 45.3002 20.1257 44.172 20.1257L43.9422 20.1231L43.7117 20.1153C42.9432 20.1136 42.3732 19.8674 42.016 19.3812C41.9527 19.2957 41.8944 19.2076 41.8429 19.117C41.8015 19.0444 41.6942 19.0565 41.6706 19.1375C41.5549 19.5322 41.4451 19.913 41.3438 20.2775C41.1242 21.0608 40.9367 21.7387 40.772 22.3502C40.6065 22.9633 40.463 23.5221 40.3447 24.0135C40.2307 24.4868 40.1513 24.8702 40.1108 25.1543L40.1082 25.1649C40.0044 25.7029 39.6488 25.892 39.3676 25.9568C39.2426 25.9852 39.1126 26 38.9808 26C38.7427 26 38.491 25.9525 38.2335 25.8601C37.8416 25.7184 37.4895 25.4741 37.1855 25.1329C36.8705 24.7789 36.7109 24.3358 36.7109 23.8159C36.7109 23.7105 36.737 23.48 36.9389 22.631C37.09 22.0049 37.2936 21.2259 37.5461 20.3148C37.7167 19.6973 37.9109 19.0254 38.1262 18.3069C38.1515 18.2205 38.0553 18.1488 37.9827 18.1998C37.2319 18.7223 36.39 19.174 35.4711 19.5427C34.5084 19.9296 33.4494 20.1257 32.3212 20.1257C32.1692 20.1257 32.0138 20.1221 31.8601 20.1152C31.0925 20.1135 30.5224 19.8673 30.1644 19.3811C30.101 19.2956 30.0436 19.2084 29.9921 19.1169C29.9499 19.0443 29.8434 19.0573 29.8198 19.1374C29.7033 19.533 29.5935 19.9147 29.4921 20.2774C29.2717 21.0633 29.0843 21.7421 28.9213 22.3501C28.7557 22.9633 28.6113 23.522 28.4931 24.0134C28.3791 24.4876 28.3006 24.871 28.2592 25.1543L28.2575 25.1648C28.1536 25.7028 27.7973 25.892 27.516 25.9567C27.391 25.9851 27.2618 25.9999 27.1301 25.9999C26.892 25.9999 26.6403 25.9524 26.3819 25.86C25.99 25.7184 25.6387 25.474 25.3347 25.1328C25.0197 24.7788 24.8601 24.3357 24.8601 23.8158C24.8601 23.7096 24.8853 23.479 25.0881 22.6309C25.2402 21.9988 25.4437 21.2198 25.6945 20.3147C25.8431 19.7767 26.0078 19.2032 26.1927 18.584C26.2198 18.4907 26.1083 18.4199 26.0373 18.4864C25.7223 18.78 25.3981 19.0538 25.0653 19.3043C24.3517 19.8423 23.6255 20.1152 22.9077 20.1152C22.2591 20.1152 21.7743 19.8855 21.4686 19.4312C21.3454 19.248 21.2491 19.0364 21.179 18.7989C21.1174 18.5874 20.8522 18.5226 20.7019 18.6823C20.4908 18.9069 20.2585 19.1116 20.0094 19.2921C19.6851 19.527 19.3228 19.7239 18.931 19.8776C18.5273 20.0348 18.0907 20.1151 17.633 20.1151C17.014 20.1151 16.471 19.9225 16.02 19.5416C15.5809 19.1737 15.2558 18.6521 15.0522 17.9897C14.8546 17.348 14.782 16.5596 14.8361 15.645C14.8901 14.7416 15.0911 13.7278 15.434 12.6301C16.1644 10.3536 17.117 8.66349 18.2664 7.60383C19.4369 6.5243 20.6242 5.97677 21.7955 5.97677C22.2912 5.97677 22.711 6.07867 23.0411 6.27902C23.3663 6.47764 23.6171 6.74019 23.7868 7.05973C23.9 7.27477 23.9828 7.50536 24.0334 7.75063C24.0426 7.79381 24.1001 7.80243 24.1213 7.76369C24.1804 7.65487 24.237 7.55731 24.2902 7.46833C24.5604 7.02097 24.9337 6.74116 25.4007 6.63666C25.8373 6.53994 26.2646 6.54598 26.6691 6.65494C27.0838 6.76722 27.419 6.97188 27.6656 7.26379C27.9333 7.58246 27.9916 7.94519 27.832 8.31309C27.7855 8.4383 27.6656 8.72157 27.4638 9.1767C27.267 9.62232 27.0373 10.1621 26.7831 10.7822C26.5314 11.3962 26.2756 12.0534 26.0231 12.7339C25.7731 13.4093 25.578 14.0406 25.4437 14.608C25.312 15.1616 25.2605 15.621 25.2901 15.9734C25.3188 16.3111 25.4446 16.3111 25.5122 16.3111C25.6093 16.3111 25.7799 16.2644 26.0442 16.0433C26.1903 15.9198 26.3423 15.7808 26.4977 15.6279C27.0998 15.0346 27.5035 14.3869 27.7729 13.5812C28.131 12.512 28.5076 11.4567 28.8944 10.4393C29.3073 9.3572 29.7102 8.38563 30.0919 7.55137C30.2912 7.11956 30.607 6.82853 31.0276 6.68862C31.4219 6.55734 31.8265 6.52972 32.2242 6.60659C32.6211 6.68431 32.9691 6.84582 33.2579 7.08763C33.3862 7.19472 33.4884 7.31043 33.5644 7.43221C33.5845 7.46502 33.6083 7.46848 33.6362 7.44169C33.9774 7.11956 34.354 6.8242 34.7602 6.5608C35.3547 6.17303 36.0278 5.97699 36.7608 5.97699C37.3807 5.97699 37.9152 6.1713 38.3468 6.55561C38.7648 6.92697 39.0629 7.4555 39.2326 8.12827C39.3973 8.77944 39.4311 9.56878 39.334 10.473C39.2368 11.3651 38.981 12.385 38.5739 13.5017C38.1888 14.5579 37.748 15.4863 37.265 16.2601C37.0311 16.6366 36.7904 16.989 36.5463 17.3146C36.515 17.356 36.5622 17.4105 36.6071 17.3854C36.7482 17.3068 36.8892 17.2213 37.0294 17.128C37.2565 16.9778 37.4769 16.8189 37.6898 16.6531C38.4988 16.0243 39.1026 15.1642 39.4243 14.1848L39.551 13.8022C39.931 12.6536 40.333 11.5223 40.7451 10.4393C41.1589 9.35547 41.5618 8.3839 41.9435 7.55137C42.1419 7.11956 42.4569 6.82938 42.8792 6.68861C43.2736 6.55733 43.6781 6.52971 44.0758 6.60658C44.4727 6.6843 44.8198 6.84581 45.1086 7.08676C45.237 7.1947 45.3392 7.31045 45.4152 7.43221C45.4355 7.46501 45.4591 7.46847 45.487 7.44168C45.8281 7.11955 46.2048 6.82419 46.611 6.56079C47.2063 6.17299 47.8794 5.97711 48.6116 5.97711ZM9.76994 0.597626C10.66 0.597626 11.5518 0.702991 12.4216 0.909378C13.2974 1.11838 14.0921 1.43618 14.782 1.85418C15.4804 2.27735 16.0538 2.80847 16.4862 3.43287C16.927 4.0685 17.15 4.8138 17.15 5.64806C17.15 6.54622 16.9541 7.38911 16.5673 8.15255C16.1839 8.90822 15.6561 9.59825 14.9999 10.2036C14.3496 10.8047 13.5786 11.335 12.7079 11.7789C11.9901 12.1451 11.2275 12.4577 10.4354 12.709C10.3847 12.7253 10.367 12.7522 10.3695 12.804C10.3864 13.2013 10.4143 13.5942 10.454 13.9725C10.4987 14.4069 10.5578 14.83 10.6305 15.2316C10.7014 15.6263 10.7875 16.0106 10.8847 16.3742C10.9607 16.6557 11.0451 16.9295 11.1355 17.1895C11.1929 17.3553 11.2537 17.5176 11.3154 17.6696C11.4395 17.9762 11.5763 18.2698 11.7216 18.5419C11.8643 18.8096 12.0188 19.0635 12.181 19.2967C12.3389 19.5238 12.5086 19.7371 12.6851 19.9323C12.8574 20.1223 13.0398 20.2968 13.2273 20.4522C13.4097 20.6033 13.6023 20.7407 13.799 20.8581C13.9907 20.9738 14.1917 21.074 14.3969 21.1569C14.5988 21.2381 14.8074 21.3038 15.0176 21.3513C15.2288 21.3987 15.4458 21.429 15.6654 21.4437C15.8841 21.4574 16.1121 21.4548 16.3393 21.4342C16.5707 21.4136 16.8071 21.3755 17.0419 21.3193C17.2826 21.2623 17.5275 21.1872 17.7715 21.0948C18.0215 20.9998 18.274 20.8841 18.5231 20.7537C18.6186 20.7035 18.7148 20.65 18.8103 20.5948C19.121 20.4134 19.5179 20.4998 19.7265 20.7934C19.936 21.087 19.8895 21.4929 19.6193 21.7313C19.4867 21.8479 19.3533 21.9618 19.2215 22.0707C18.9015 22.3349 18.5806 22.5802 18.2673 22.7987C17.97 23.006 17.6677 23.1994 17.3687 23.3713C17.2192 23.4577 17.0622 23.5423 16.9026 23.6235C16.596 23.7806 16.2861 23.9188 15.9795 24.0345C15.6747 24.1494 15.3681 24.2453 15.0692 24.3178C14.7711 24.3903 14.4704 24.443 14.1774 24.4733C13.9679 24.4948 13.7585 24.5061 13.5541 24.5061C13.4714 24.5061 13.3886 24.5043 13.3059 24.5001C13.0221 24.4879 12.74 24.4543 12.4664 24.3999C12.3313 24.3731 12.1945 24.3403 12.0611 24.3023C11.9319 24.2669 11.7993 24.2246 11.6667 24.1754C11.4125 24.0822 11.16 23.9673 10.9185 23.8335C10.682 23.7022 10.4489 23.5511 10.2277 23.3835C10.0486 23.2479 9.87298 23.0985 9.70662 22.9405C9.50646 22.7505 9.3114 22.5389 9.12645 22.3144C8.94404 22.0924 8.76923 21.8523 8.60709 21.601C8.44411 21.3506 8.2904 21.0828 8.14853 20.8065C8.00748 20.5301 7.87323 20.2365 7.75161 19.9342C7.63084 19.6346 7.51852 19.3167 7.41635 18.9877C7.31584 18.6647 7.22382 18.3227 7.14272 17.9704C7.06248 17.6189 6.99239 17.2544 6.93414 16.8865C6.88179 16.5609 6.83787 16.2233 6.80324 15.8804C6.79303 15.7768 6.647 15.763 6.61745 15.8641C6.49077 16.3114 6.37593 16.745 6.27458 17.1595C6.14707 17.6794 6.02968 18.1527 5.92327 18.5776C5.81941 18.9938 5.74594 19.3289 5.70371 19.5733C5.61926 20.0069 5.33804 20.2806 4.88708 20.3696C4.49946 20.4473 4.08313 20.4145 3.65412 20.2746C3.23019 20.1355 2.8451 19.8946 2.50815 19.5569C2.15515 19.2028 1.97612 18.7581 1.97612 18.2339C1.97612 17.8072 2.08253 17.1327 2.3004 16.1733C2.5132 15.2362 2.81977 14.1256 3.2133 12.8708C3.60346 11.6263 4.07721 10.254 4.62022 8.7945C5.08638 7.54052 5.60997 6.27791 6.17747 5.03257C6.36326 4.62494 6.7475 4.34427 7.19086 4.29245C8.19327 4.17501 9.0631 4.20435 9.80034 4.37882C10.2445 4.48418 10.4827 4.97039 10.2969 5.38925C9.82146 6.45841 9.38317 7.52498 8.99132 8.56305C8.67463 9.40336 8.37062 10.235 8.08349 11.0442C8.05572 11.1246 8.1367 11.1988 8.21269 11.1634C8.59525 10.9864 8.97274 10.7774 9.34178 10.539C9.94644 10.1478 10.4971 9.68057 10.9793 9.15117C11.4589 8.62177 11.8525 8.02501 12.1489 7.37643C12.4411 6.7339 12.5897 6.03609 12.5897 5.30029C12.5897 4.35463 12.3296 3.65596 11.817 3.22501C11.2976 2.78888 10.5663 2.56693 9.64242 2.56693C8.65859 2.56693 7.7592 2.80185 6.9696 3.2656C6.15889 3.74059 5.45796 4.3244 4.88624 5.00148C4.31029 5.68374 3.85595 6.41263 3.53758 7.1683C3.22175 7.91706 3.06129 8.57341 3.06129 9.12008C3.06129 9.5113 2.85609 9.7937 2.48365 9.91547C2.15684 10.0226 1.79624 10.007 1.42635 9.86798C1.07082 9.73497 0.741465 9.47158 0.446735 9.08641C0.150314 8.6995 0 8.17528 0 7.52843C0 6.96363 0.212797 6.29864 0.650259 5.49547C1.07588 4.71217 1.70588 3.9496 2.52081 3.22847C3.3349 2.50908 4.36181 1.88468 5.57619 1.37342C6.79732 0.858699 8.20847 0.597626 9.76994 0.597626ZM58.216 0C59.5781 0 60.6819 1.11407 60.6819 2.48722C60.6819 3.86038 59.5781 4.97445 58.216 4.97445C56.8538 4.97445 55.7501 3.86038 55.7501 2.48722C55.7501 1.11407 56.8538 0 58.216 0Z" fill="#A4ABB6" fill-rule="evenodd"/>
</g>
<defs>
<clipPath id="clip0_547_16240">
<rect fill="white" height="26" width="60.6819"/>
</clipPath>
</defs>
</svg>